<svg width="392" height="392" viewBox="0 0 392 392" fill="none" xmlns="http://www.w3.org/2000/svg">
<rect width="392" height="392" fill="white"/>
<path fill-rule="evenodd" clip-rule="evenodd" d="M105.85 110.005C114.907 102.104 127.033 99.0046 138.174 94.4969C170.406 81.4563 195.717 55.7676 225.762 38.2664C240.63 29.6056 258.335 22.8417 274.802 27.8321C286.263 31.3051 295.795 40.5897 299.569 51.9546C306.694 73.411 293.802 95.6549 286.569 117.075C272.767 157.952 279.769 203.3 294.97 243.677C298.294 252.507 302.023 261.281 303.576 270.587C307.184 292.217 298.243 314.781 283.094 330.636C267.944 346.49 247.228 356.172 225.903 361.283C199.767 367.548 172.107 367.354 146.061 360.724C132.862 357.364 119.883 352.265 109.182 343.84C98.4803 335.414 90.203 323.366 88.2777 309.882C85.3783 289.578 96.7864 270.054 98.798 249.643C99.6931 240.56 98.7092 231.408 97.6582 222.342C96.0989 208.891 94.3901 195.457 92.5322 182.044C90.7814 169.403 88.8939 156.629 90.1635 143.931C91.4332 131.233 96.2337 118.394 105.85 110.005" fill="#64FCD9"/>
<path d="M222.851 274.484C223.013 276.589 223.121 278.771 222.379 280.747C221.081 284.2 217.559 286.204 214.293 287.918C195.114 297.986 175.721 307.895 155.096 314.513C154.178 313.022 149.374 304.785 152.815 301.841C160.256 295.473 198.875 269.66 198.875 269.66C198.875 269.66 194.434 261.053 196.927 258.528C201.714 253.681 215.768 252.902 218.837 253.527C220.889 253.945 222.726 272.865 222.851 274.484Z" fill="white"/>
<path fill-rule="evenodd" clip-rule="evenodd" d="M163.559 299.337C163.559 299.337 164.252 300.857 166.434 300.857C168.615 300.857 172.71 292.454 174.923 287.99C177.159 283.479 177.027 283.427 180.971 273.904C184.915 264.38 177.122 250.1 177.122 250.1C177.122 250.1 164.377 248.402 162.21 250.1C158.814 252.761 160.981 269.753 160.981 269.753L163.559 299.337Z" fill="white"/>
<path d="M224.67 161.218C218.074 158.844 209.391 157.842 203.232 154.494C203.484 154.459 201.915 149.996 203.36 145.42C204.972 140.317 265.765 170.131 269.197 173.493C269.558 173.847 278.005 183.612 274.755 184.271C272.779 184.671 271.518 183.319 264.334 179.372C257.149 175.424 258.342 182.229 257.149 182.387C256.118 182.524 255.713 180.802 255.728 181.049C247.02 172.241 236.324 165.411 224.67 161.218Z" fill="white"/>
<path fill-rule="evenodd" clip-rule="evenodd" d="M257.793 71.4098C260.043 74.9663 260.567 77.2009 261.139 81.3714C257.761 84.1182 218.921 108.792 190.777 120.083L191.301 120.043C196.059 119.662 199.584 118.826 200.55 117.656C205.36 135.535 205.251 154.712 200.239 172.536C199.534 175.043 202.461 176.895 204.913 177.851L205.04 177.899C222.425 184.503 238.931 193.417 253.986 204.334C245.344 208.48 237.427 214.135 230.702 220.965L229.987 221.698C227.606 224.152 225.222 226.692 222.13 228.111C218.728 229.673 214.133 229.423 211.888 226.427L215.966 233.966C206.987 239.252 196.869 242.59 186.508 243.688L185.962 243.743C184.851 243.853 183.636 243.911 182.718 243.275C182.059 242.819 181.67 242.082 181.321 241.356L167.604 212.563C165.104 207.301 162.663 201.941 161.717 196.202C159.665 183.754 164.333 170.985 162.444 158.511C160.422 145.158 150.746 134.426 144.996 122.206C142.782 117.501 139.519 110.63 142.257 103.16C144.996 95.6894 176.05 96.5995 200.239 90.2248C231.475 81.9932 257.393 70.7781 257.793 71.4098Z" fill="white"/>
<ellipse cx="170.212" cy="74.7591" rx="18.4817" ry="22.3303" fill="white"/>
<path d="M195.372 144.555C194.756 147.221 191.529 148.919 188.968 147.956C188.627 147.828 188.474 147.441 188.362 147.094C186.896 142.545 185.928 137.835 185.48 133.076C185.399 132.214 185.337 131.328 185.583 130.498C186.12 128.692 188.261 127.543 190.062 128.095C191.29 128.471 192.236 129.492 192.813 130.638C193.391 131.785 193.648 133.061 193.9 134.32C194.316 136.397 194.732 138.475 195.147 140.552C195.411 141.873 195.675 143.242 195.372 144.555" fill="white"/>
<path d="M183.267 259.136C182.863 258.893 179.712 251.458 181.123 250.607C187.033 247.036 233.207 229.884 238.615 226.711C244.024 223.537 237.475 219.783 237.823 217.338C238.372 213.47 250.28 210.613 250.306 208.651C258.06 213.697 265.424 218.42 270.739 225.992C272.72 228.814 274.743 234.35 272.82 237.211C271.681 238.905 268.766 239.755 266.819 240.37C251.201 245.307 180.199 264.057 183.267 259.136Z" fill="white"/>
<path d="M155.651 318.005C154.342 328.919 151.534 339.652 147.33 349.808C146.564 351.659 145.655 353.604 143.942 354.642C142.229 355.68 139.503 355.239 138.884 353.334C134.09 338.562 131.715 323.007 131.883 307.477C131.89 306.847 131.91 306.185 132.229 305.642C132.716 304.815 133.738 304.504 134.669 304.275C139.436 303.102 144.29 302.287 149.178 301.841C149.72 302.098 148.148 315.559 155.651 318.005Z" fill="white"/>
<ellipse cx="278.581" cy="92.2507" rx="25.6107" ry="25.6107" fill="#FFB61D"/>
<path fill-rule="evenodd" clip-rule="evenodd" d="M262.119 69.7442C262.854 72.9911 264.02 76.2415 266.753 75.7433C270.305 75.0959 263.052 73.8144 311.064 69.3644C311.613 69.3136 310.649 68.2473 310.171 67.9743C307.647 66.5343 304.986 65.3134 302.251 64.3351C297.812 62.7481 261.698 67.8856 262.119 69.7442Z" fill="white"/>
<path fill-rule="evenodd" clip-rule="evenodd" d="M255.726 181.049C247.019 172.241 236.322 165.411 224.669 161.218C218.072 158.844 211.13 157.282 204.971 153.934C205.499 153.861 205.98 153.503 206.201 153.018C223.22 158.864 240.845 165.074 253.7 177.668C254.661 178.61 255.648 179.706 255.726 181.049V181.049Z" fill="#00160A"/>
<path fill-rule="evenodd" clip-rule="evenodd" d="M204.891 134.652C207.485 135.613 209.505 137.645 211.63 139.416C223.292 149.133 239.482 151.751 251.67 160.8C250.56 160.507 249.505 160.04 248.456 159.575C237.34 154.646 226.203 149.706 215.631 143.699C211.514 141.359 207.334 138.708 204.891 134.652L204.891 134.652Z" fill="#00160A"/>
<path fill-rule="evenodd" clip-rule="evenodd" d="M150.492 69.0818C149.351 64.5583 148.363 59.7675 149.64 55.2808C150.918 50.794 155.209 46.8225 159.822 47.5129C162.948 47.9807 166.005 46.5655 168.878 45.2355L168.996 45.1808C172.734 43.4508 176.69 41.8177 180.806 41.9733C184.922 42.129 189.231 44.5669 190.275 48.5514C190.724 50.2651 190.541 52.0729 190.356 53.8348L188.811 68.5022C188.195 74.3468 187.476 80.4767 184.087 85.2778C180.698 90.0789 173.694 92.8719 168.756 89.6845C168.076 91.5911 169.585 93.717 171.473 94.448C173.36 95.1791 175.47 94.894 177.471 94.5899C201.067 91.0047 225.393 85.8492 244.405 71.4217C244.035 68.925 245.347 66.2645 247.552 65.0366L247.76 64.9201C249.217 64.1059 251.448 62.859 252.971 63.1757C254.744 63.5445 255.991 65.2983 257.139 66.9129L257.14 66.913C257.426 67.3156 257.706 67.7095 257.987 68.0711C260.407 71.1897 261.211 75.2293 261.945 79.108C262.176 80.3326 262.068 82.0698 260.832 82.234C267.648 82.349 274.453 83.1146 281.125 84.5171L282.702 80.3271C278.603 73.8657 267.223 74.4582 263.817 81.3104C262.775 80.0668 264.444 78.3901 265.884 77.6428C265.788 77.6927 265.791 77.688 265.881 77.6384C263.705 73.7326 262.102 69.508 261.139 65.1416C262.012 67.0298 262.938 68.5743 263.863 70.1187C264.789 71.6632 265.715 73.2076 266.587 75.0958C273.549 71.8756 280.846 71.1818 288.475 70.4565L288.703 70.4349C285.698 71.5589 283.863 75.1484 284.712 78.2418C288.305 78.1664 291.869 77.0313 294.844 75.0149C292.962 74.1169 291.52 72.3447 291.024 70.3197C294.594 72.1227 297.101 74.0963 295.739 75.6858C293.836 77.907 286.634 79.49 284.15 79.7957L282.746 84.9455C288.768 86.6216 294.468 89.4444 299.451 93.2179C302.596 95.5996 305.497 100.479 302.466 103.004L321.485 103.278C322.735 103.297 324.503 104.119 323.891 105.208L242.169 105.251C241.044 105.251 239.519 103.986 240.519 103.469C245.091 103.715 249.687 103.512 254.22 102.865C252.401 98.8571 251.787 94.3116 252.478 89.9648C253.522 83.3885 250.27 76.333 244.591 72.8559C219.674 90.6098 187.81 94.6468 157.377 97.7866C153.682 98.1678 149.726 98.6529 146.937 101.106C144.028 103.665 143.067 107.908 143.579 111.749C144.091 115.589 145.866 119.134 147.694 122.55C148.762 124.547 149.863 126.546 150.968 128.552C157.849 141.047 164.877 153.809 165.089 167.912C165.144 171.573 164.728 175.226 164.313 178.875C163.793 183.435 163.274 187.99 163.677 192.549C164.354 200.231 167.599 207.419 170.798 214.436L182.057 239.139C182.49 240.089 182.961 241.086 183.822 241.678C185.253 242.663 187.187 242.192 188.849 241.684L207.628 235.95C209.47 235.387 211.656 234.421 211.808 232.501C211.892 231.443 211.287 230.467 210.706 229.579L205.522 221.657L217.34 226.165C218.174 226.482 219.052 226.806 219.935 226.683C221.024 226.532 221.897 225.739 222.703 224.991C231.243 217.061 240.572 209.984 250.509 203.896C234.986 192.247 217.35 183.421 198.72 177.977C202.926 158.659 203.038 138.46 199.049 119.096L172.741 127.46C172.615 130.681 173.43 133.83 174.243 136.967L174.243 136.967L174.243 136.967L174.243 136.968C174.457 137.796 174.671 138.623 174.868 139.451C175.81 143.415 176.322 147.743 174.604 151.438C172.886 155.132 168.208 157.686 164.583 155.826C168.897 157.239 173.5 153.417 174.647 149.025C175.795 144.634 174.496 140.015 173.206 135.664L170.484 126.486C199.654 117.828 227.193 103.705 251.246 85.067C236.793 99.1386 218.559 108.568 200.55 117.656C205.36 135.535 205.251 154.712 200.24 172.536C199.522 175.087 202.563 176.958 205.04 177.899C222.425 184.503 238.931 193.417 253.987 204.334C245.344 208.48 237.428 214.135 230.702 220.965C230.361 221.312 230.021 221.663 229.68 222.014C227.4 224.368 225.09 226.753 222.13 228.111C218.729 229.673 214.133 229.423 211.889 226.427L215.966 233.966C206.83 239.345 196.514 242.707 185.962 243.743C184.851 243.853 183.636 243.911 182.718 243.275C182.016 242.789 181.619 241.983 181.252 241.212L168.045 213.49C165.397 207.931 162.718 202.279 161.717 196.202C160.68 189.909 161.494 183.533 162.308 177.155C163.105 170.918 163.901 164.679 162.967 158.511C161.639 149.74 157.008 142.1 152.357 134.426C149.927 130.417 147.492 126.399 145.519 122.206C143.305 117.501 141.638 112.281 142.48 107.15C143.321 102.018 147.301 97.1168 152.483 96.6806C151.177 90.1835 151.693 83.3302 153.958 77.102C154.03 83.768 153.7 90.4383 152.967 97.0643L170.073 95.5354L165.217 87.7935C171.369 92.2585 180.706 88.4161 184.59 81.8811C188.474 75.3461 188.365 67.2613 187.873 59.675C182.871 62.7393 176.347 63.1625 170.99 60.7703C168.504 59.6597 165.475 61.1554 163.954 63.4147C162.433 65.674 162.05 68.4865 161.706 71.1883C160.522 70.7376 160.242 69.4694 159.951 68.1495C159.746 67.2228 159.536 66.2706 159.003 65.5578C157.101 63.0134 152.574 65.7669 152.688 68.9416C152.802 72.1162 155.51 74.5172 158.081 76.3831C154.351 77.803 151.467 72.952 150.492 69.0818ZM254.326 65.8113C253.839 65.244 253.262 64.6596 252.519 64.574C251.7 64.4798 250.958 65.0164 250.309 65.5245L247.908 67.4063C247.087 68.0492 246.243 68.7198 245.755 69.6408C245.267 70.5617 245.232 71.8087 245.957 72.5577C248.44 75.1236 250.96 77.7421 252.568 80.93C254.175 84.1179 254.759 88.0215 253.243 91.254C252.457 92.9293 253.47 95.0278 255.055 95.9829C256.64 96.938 258.606 96.9918 260.446 96.801C263.811 96.4523 267.054 95.3881 270.266 94.3304L276.918 92.1407C279.224 91.3817 280.846 88.9277 280.642 86.5089C280.94 86.0089 280.19 85.5532 279.618 85.4491C275.305 84.6649 270.955 84.085 266.588 83.7122C262.514 83.3645 258.008 83.3256 254.844 85.9149C256.211 83.5424 258.531 81.7371 261.167 80.9946C260.402 75.4189 257.996 70.0786 254.326 65.8113ZM279.903 92.2934C282.089 93.0421 283.607 95.0387 284.653 97.0989C285.028 97.8378 285.361 98.5994 285.694 99.3606C286.289 100.722 286.884 102.081 287.716 103.307C291.211 103.439 294.712 103.414 298.205 103.232C299.133 103.183 300.083 103.119 300.936 102.749C301.79 102.379 302.541 101.64 302.67 100.72C302.7 100.506 302.696 100.288 302.693 100.07C302.688 99.75 302.682 99.4313 302.784 99.1305C302.816 99.0345 302.858 98.9344 302.901 98.833C303.054 98.4664 303.214 98.0839 302.954 97.8264C297.546 92.4802 290.763 88.5361 283.441 86.4802C283.026 86.3637 282.536 86.267 282.201 86.5387C282.012 86.6916 281.919 86.9297 281.834 87.1568L279.903 92.2934ZM256.736 103.155L271.804 103.202C272.768 103.205 273.41 102.241 273.868 101.393L278.39 93.0231C275.791 93.5239 273.306 94.4449 270.819 95.3667C269.303 95.9288 267.786 96.4911 266.242 96.9588C262.164 98.1936 257.59 98.7214 253.764 96.8471C253.821 98.6341 254.535 100.393 255.739 101.714C255.413 101.84 255.231 102.25 255.357 102.576C255.549 103.072 256.205 103.153 256.736 103.155ZM274.111 103.147C276.952 102.874 279.815 102.965 282.667 103.057L285.864 103.16C284.947 100.203 283.53 97.4011 281.693 94.9093C281.342 94.4333 280.949 93.9479 280.398 93.7317C279.848 93.5156 279.103 93.6837 278.879 94.2309C277.598 97.3547 275.998 100.347 274.111 103.147ZM281.995 78.0481C282.245 78.1737 282.528 78.298 282.795 78.2161C283.189 78.0958 283.323 77.618 283.396 77.2133L284.175 72.9003C284.218 72.6608 284.256 72.3944 284.123 72.1906C283.913 71.869 283.423 71.91 283.077 72.0754C282.988 72.1176 282.901 72.1658 282.814 72.214C282.558 72.3546 282.302 72.4957 282.017 72.4912C279.945 72.4587 277.868 72.9227 276.007 73.8334C277.781 75.5235 279.805 76.949 281.995 78.0481ZM186.359 66.6904L183.008 68.2194C182.739 68.3423 182.423 68.4652 182.159 68.3314C181.822 68.1605 181.799 67.6509 182.018 67.3428C182.237 67.0346 182.608 66.8793 182.959 66.7391L184.419 66.1555C184.794 66.0054 185.19 65.8525 185.592 65.9034C185.993 65.9543 186.389 66.2871 186.359 66.6904ZM174.669 70.0196C175.169 69.9833 175.674 69.4862 175.485 69.0223L173.469 68.5993C171.774 68.2436 169.788 67.9599 168.504 69.1213C168.087 69.498 167.813 70.2128 168.233 70.586C169.561 69.3984 171.559 69.0177 173.231 69.6336C173.327 69.669 173.423 69.7076 173.52 69.7463C173.894 69.8967 174.272 70.0485 174.669 70.0196ZM180.358 71.3601L179.972 70.6877C179.799 70.5963 179.559 70.6658 179.461 70.8356C178.762 72.9287 179.088 75.3381 180.318 77.1705C180.62 77.6219 180.096 78.2589 179.552 78.2563C179.009 78.2537 178.554 77.8567 178.187 77.4559C177.76 78.1656 178.495 79.1623 179.323 79.153C180.151 79.1436 180.829 78.3908 181 77.5806C181.172 76.7704 180.945 75.9296 180.645 75.1576C180.571 74.9658 180.491 74.7753 180.412 74.5847L180.412 74.5846L180.412 74.5844L180.412 74.5842L180.412 74.5841L180.412 74.5839L180.412 74.5838C180.172 74.0074 179.933 73.4306 179.824 72.8181C179.725 72.2627 179.827 71.5504 180.358 71.3601ZM166.266 80.4762C166.031 79.3751 165.976 77.9025 167.016 77.4716C167.79 77.1511 168.688 77.7217 169.078 78.4625C169.376 79.0262 169.47 79.6629 169.565 80.298L169.565 80.2981L169.565 80.2982L169.565 80.2982L169.565 80.2983L169.565 80.2984L169.565 80.2984L169.565 80.2985L169.565 80.2986L169.565 80.2987L169.565 80.2987L169.565 80.2988C169.595 80.4982 169.624 80.6975 169.66 80.8942C169.811 81.7181 170.134 82.5925 170.86 83.0095C173.08 84.284 175.639 84.9611 178.198 84.9513C175.72 86.0412 172.896 84.7577 170.499 83.4982L165.041 80.6303C164.687 80.4441 164.272 80.0614 164.489 79.7251C165.115 79.8823 165.717 80.1366 166.266 80.4762ZM167.896 79.7424C168.019 80.2868 168.052 80.8516 167.993 81.4067C168.453 81.4768 168.889 81.6939 169.222 82.0183C169.104 80.7922 168.791 79.585 168.298 78.4563C168.027 77.8365 166.973 78.0745 166.73 78.7061C166.488 79.3376 166.79 80.0403 167.134 80.6227C167.151 80.2041 167.484 79.8197 167.896 79.7424ZM171.55 184.929C180.488 183.719 189.672 182.429 197.529 178C197.869 177.808 198.24 177.349 197.938 177.102C189.228 181.327 179.66 183.772 169.991 184.243C169.999 184.889 170.909 185.016 171.55 184.929ZM179.735 274.932C180.233 273.85 180.624 272.719 180.898 271.56L173.986 270.018C174.126 269.446 174.906 269.378 175.491 269.456C177.399 269.711 179.277 270.184 181.079 270.861L182.364 265.506C182.638 265.357 182.976 265.332 183.268 265.44C182.387 270.363 180.985 275.193 179.094 279.824C178.82 280.496 178.375 281.276 177.649 281.27C177.597 280.842 177.666 280.4 177.847 280.009C176.106 280.11 174.166 280.146 172.859 278.992C174.572 278.77 176.324 278.845 178.011 279.214C178.698 278.159 179.225 277.002 179.57 275.792C177.566 275.695 175.58 275.251 173.725 274.486C173.915 273.935 174.688 273.941 175.26 274.053L179.735 274.932ZM141.931 352.174C138.222 338.211 135.947 323.866 135.153 309.44C135.084 308.187 135.075 306.789 135.916 305.857C136.496 320.259 138.533 334.602 141.987 348.596C142.281 349.787 142.566 351.125 141.931 352.174ZM147.175 327.069C149.167 326.62 151.269 326.666 153.238 327.203L154.13 323.749C151.705 323.551 149.306 323.046 147.007 322.25C149.459 321.794 152.05 322.117 154.315 323.162C153.928 321.362 154.438 319.391 155.651 318.005C154.342 328.919 151.534 339.652 147.33 349.808C146.564 351.659 145.655 353.604 143.942 354.642C142.229 355.68 139.503 355.239 138.884 353.334C134.09 338.562 131.715 323.007 131.883 307.477C131.89 306.847 131.91 306.185 132.229 305.642C132.716 304.815 133.738 304.504 134.669 304.275C139.436 303.102 144.29 302.287 149.178 301.841C149.72 302.098 149.009 302.839 148.419 302.95L132.583 305.93C132.75 321.766 135.162 337.576 139.723 352.741C139.9 353.331 140.109 353.961 140.603 354.328C141.88 355.275 143.523 353.757 144.331 352.389C148.032 346.126 150.645 339.223 152.021 332.08C150.34 332.822 148.305 332.705 146.72 331.774C148.517 331.296 150.432 331.273 152.239 331.706L153.138 328.485L147.175 327.069ZM238.616 223.173C238.62 222.701 238.413 222.251 238.165 221.849C237.525 220.808 236.579 219.959 235.475 219.434C234.994 220.178 235.65 221.105 236.189 221.807C236.729 222.509 237.094 223.699 236.323 224.134L223.431 231.421C223.004 231.662 222.519 232.188 222.849 232.55C225.812 232.179 228.459 230.58 231.005 229.019L236.68 225.538C237.589 224.98 238.607 224.24 238.616 223.173ZM189.795 183.378C190.141 183.279 189.739 182.78 189.382 182.742C189.025 182.705 188.525 182.377 188.797 182.142L190.301 182.202C190.958 182.476 190.741 183.578 190.095 183.877C189.449 184.176 188.694 183.943 188.023 183.708C187.941 184.539 187.038 185.187 186.224 185C185.41 184.812 184.882 183.833 185.172 183.05C185.644 182.644 186.351 182.534 186.924 182.777C186.98 183.021 186.729 183.096 186.457 183.178C186.3 183.225 186.135 183.274 186.019 183.359C185.547 183.703 186.231 184.503 186.778 184.299C187.326 184.095 187.544 183.452 187.693 182.887C188.314 183.275 189.066 183.451 189.795 183.378ZM174.352 71.9352C175.255 71.796 175.649 73.1829 175.158 73.9534C174.74 74.6102 173.85 75.0236 173.154 74.6744C172.953 73.9213 173.12 73.0794 173.592 72.4592C173.783 72.2081 174.04 71.9832 174.352 71.9352ZM184.314 73.0874C185.199 72.5997 184.88 71.2687 184.443 70.3582C183.219 70.513 182.434 72.0951 183.051 73.1631C183.475 73.2403 183.937 73.2953 184.314 73.0874ZM181.123 250.607L186.861 247.995C187.329 246.61 186.782 244.947 185.584 244.11C185.55 245.09 185.763 246.078 186.199 246.957C183.724 248.153 181.179 249.203 178.581 250.1C180.022 253.574 181.078 257.207 181.724 260.912C185.192 261.027 188.673 260.761 192.083 260.122L196.09 268.81L179.781 280.938C174.332 284.991 171.726 291.731 169.385 298.106C171.46 296.202 172.577 293.53 173.69 290.871C174.913 287.946 176.131 285.036 178.608 283.177L195.207 270.725C195.807 270.274 196.447 269.767 196.629 269.039C196.799 268.356 196.523 267.649 196.252 266.999L193.248 259.794C201.941 258.469 210.515 256.37 218.836 253.527L221.007 273.828C221.289 276.47 221.521 279.346 220.087 281.583C219.056 283.191 217.328 284.192 215.659 285.121C196.266 295.918 176.038 305.217 155.217 312.907L151.347 302.87C155.058 300.124 158.914 297.572 162.893 295.231C162.866 296.635 162.858 298.12 163.559 299.337C164.26 300.555 165.942 301.324 167.119 300.558C168.434 299.702 168.255 297.76 167.946 296.222C165.008 281.576 164.538 266.562 164.077 251.631C162.908 267.323 164.056 283.187 167.47 298.548C167.702 299.589 166.091 300.213 165.225 299.59C164.359 298.966 164.141 297.792 163.997 296.735C162.052 282.451 161.184 268.021 161.401 253.607C161.415 252.633 161.504 251.517 162.286 250.936C162.8 250.553 163.485 250.514 164.126 250.488L177.665 249.959C172.996 249.281 168.244 249.177 163.55 249.651C162.789 249.728 161.976 249.842 161.407 250.354C160.664 251.024 160.575 252.139 160.544 253.139C160.156 265.802 160.854 278.498 162.628 291.041C162.951 293.324 161.213 295.416 159.261 296.642C158.44 297.157 157.564 297.581 156.689 298.005L156.689 298.005C155.482 298.589 154.277 299.173 153.222 299.993C151.402 301.409 150.094 303.936 151.079 306.02L155.096 314.513C175.72 307.895 195.114 297.986 214.293 287.918C217.559 286.204 221.081 284.2 222.378 280.747C223.121 278.771 223.012 276.589 222.85 274.484C222.299 267.345 221.245 260.244 219.697 253.253C235.49 248.906 251.201 244.262 266.82 239.325C268.767 238.71 270.859 237.983 271.997 236.289C273.92 233.428 272.131 229.589 270.151 226.767C264.836 219.195 258.06 212.652 250.307 207.605C250.281 209.568 252.072 210.997 253.641 212.178C259.126 216.307 263.967 221.288 267.939 226.888C269.625 229.267 271.127 232.643 269.261 234.884C268.424 235.89 267.114 236.343 265.87 236.75C238.514 245.685 210.744 253.355 182.68 259.725L181.123 250.607ZM306.971 181.804C307.581 182.989 308.532 184.429 309.834 184.146C307.078 178.469 303.187 173.344 298.459 169.163L312.041 156.919L310.797 177.918C310.708 179.42 310.633 180.999 311.296 182.35C312.565 181.93 312.788 180.26 312.797 178.923C312.962 154.75 317.08 130.608 324.937 107.747C324.116 106.585 322.472 106.453 321.049 106.446C314.566 106.415 308.086 106.711 301.608 107.006H301.607H301.607C294.37 107.336 287.134 107.667 279.893 107.542C276.434 107.482 272.966 107.319 269.499 107.156C260.191 106.718 250.882 106.281 241.727 107.841C241.589 107.864 241.445 107.89 241.33 107.97C240.979 108.212 241.083 108.748 241.225 109.15C246.876 125.151 250.773 141.772 252.822 158.617C253.119 161.059 255.278 162.784 257.267 164.232L265.174 169.989C266.297 170.807 268.232 171.435 268.766 170.152C269.147 169.238 270.3 168.848 271.272 169.034C272.245 169.221 273.069 169.846 273.828 170.483C278.261 174.2 281.812 178.962 284.112 184.271L297.132 170.158C301.232 173.233 304.624 177.248 306.971 181.804ZM277.432 118.303C284.18 118.445 290.953 116.079 296.145 111.766C296.924 111.12 297.672 110.427 298.29 109.625C298.829 108.924 299.757 108.057 300.416 108.646C299.784 111.24 299.686 113.964 300.13 116.597C300.466 118.594 298.688 120.257 297.088 121.498L292.244 125.257C291.035 126.195 289.793 127.15 288.335 127.616C286.877 128.081 285.135 127.964 284.009 126.928L275.605 119.198C274.971 118.615 274.319 118.008 273.97 117.22C273.688 116.582 273.625 115.872 273.579 115.177C273.435 112.992 273.419 110.799 273.531 108.613C276.105 109.098 278.747 109.02 281.364 108.941L288.116 108.737C288.571 108.723 289.036 108.71 289.474 108.838C289.879 108.957 290.24 109.189 290.594 109.419L294.648 112.051C293.593 111.974 292.781 112.713 291.961 113.459C291.6 113.788 291.237 114.118 290.851 114.381C290.052 114.923 289.101 115.187 288.163 115.418C286.671 115.786 285.164 116.096 283.648 116.347C280.755 116.826 277.77 117.087 274.904 116.469C274.598 117.635 276.226 118.277 277.432 118.303ZM268.182 144.021C268.622 143.682 269.092 143.329 269.644 143.263C270.206 143.195 270.755 143.435 271.26 143.69C276.656 146.414 280.548 151.337 284.261 156.108C280.417 158.186 276.94 160.939 274.035 164.203L273.965 164.282C273.494 164.811 273.01 165.357 272.364 165.642C271.686 165.94 270.769 165.849 270.362 165.23C267.007 160.139 262.78 155.624 257.921 151.942L268.182 144.021ZM271.96 141.327C275.918 138.222 280.008 135.286 284.217 132.53C284.647 132.248 285.102 131.96 285.614 131.914C286.173 131.865 286.711 132.112 287.208 132.371C291.94 134.839 295.738 139.047 297.711 144.005C293.368 146.611 289.472 149.958 286.241 153.858C285.873 154.302 285.167 154.762 284.818 154.304C281.119 149.445 276.785 145.07 271.96 141.327ZM303.579 148.836C306.09 151.074 308.796 153.092 311.657 154.861C306.207 158.373 301.378 162.845 297.459 168.01C294.672 163.725 291.257 159.849 287.357 156.543C287.164 156.38 286.956 156.194 286.922 155.943C286.883 155.663 287.074 155.409 287.255 155.192C291.031 150.677 295.684 146.899 300.878 144.131C300.728 146.002 302.177 147.587 303.579 148.836ZM255.722 108.671C256.762 108.632 257.948 108.664 258.637 109.445C262.265 113.561 267.229 116.479 272.59 117.647C269 121.24 264.932 124.354 260.527 126.883C259.813 127.293 258.944 126.749 258.313 126.221C252.576 121.427 247.469 115.879 243.165 109.765C247.33 109.196 251.522 108.83 255.722 108.671ZM273.751 168.259C276.145 163.969 280.064 160.552 284.639 158.765C286.171 158.166 287.774 159.369 288.939 160.53C291.461 163.044 293.77 165.77 295.835 168.671C295.949 168.832 296.068 169.006 296.079 169.203C296.104 169.641 295.633 169.914 295.243 170.115C292.93 171.306 291.377 173.421 289.813 175.551C288.606 177.194 287.393 178.847 285.818 180.092C285.661 180.216 285.49 180.34 285.291 180.359C284.956 180.39 284.677 180.122 284.45 179.875L273.751 168.259ZM301.261 120.78C304.933 124.74 309.219 128.13 313.919 130.792C309.155 133.833 304.791 137.5 300.974 141.668C300.424 142.269 299.476 141.576 298.973 140.935C295.686 136.747 291.752 133.067 287.353 130.067C292.37 128.143 296.821 124.766 300.026 120.452C300.318 120.059 300.928 120.421 301.261 120.78ZM285.573 130.184C280.002 132.248 274.982 135.775 271.152 140.317C268.217 135.901 264.061 132.463 259.967 129.094C264.895 126.592 269.474 123.402 273.528 119.645C277.268 123.457 281.299 126.983 285.573 130.184ZM313.929 110.986C315.645 109.783 317.449 108.545 319.525 108.261C320.643 108.108 321.777 108.243 322.896 108.385C320.225 115.586 318.058 122.973 316.417 130.475C311.479 127.469 306.871 123.922 302.701 119.917C302.582 119.803 302.458 119.679 302.419 119.519C302.336 119.178 302.66 118.886 302.948 118.684L313.929 110.986ZM257.398 150.652C256.554 149.44 255.412 148.436 254.102 147.753L254.017 147.709L254.014 147.708C253.726 147.559 253.43 147.406 253.235 147.149C253.069 146.928 252.995 146.654 252.925 146.386C252.324 144.101 251.719 141.73 252.12 139.401C252.651 136.319 254.845 133.821 257.002 131.557C257.267 131.279 257.557 130.987 257.933 130.903C258.332 130.814 258.741 130.979 259.111 131.154C263.559 133.252 266.862 137.173 269.677 141.205C264.942 143.375 260.71 146.632 257.398 150.652ZM302.247 144.365C302.511 142.35 303.888 140.668 305.338 139.243C308.371 136.264 311.984 133.877 315.915 132.256L312.559 153.546C308.502 151.295 304.953 148.134 302.247 144.365ZM256.246 151.573C256.329 151.923 256.033 152.239 255.763 152.478L254.46 153.632C254.51 153.947 254.965 153.992 255.252 153.85C255.338 153.808 255.421 153.756 255.505 153.703C255.698 153.582 255.891 153.462 256.114 153.463C256.322 153.465 256.512 153.575 256.689 153.683C261.841 156.822 266.211 161.234 269.3 166.416C269.494 166.742 269.689 167.092 269.685 167.472C269.679 168.018 269.268 168.465 268.884 168.853C268.016 169.729 266.597 170.635 265.698 169.792C262.782 167.056 259.526 164.682 256.029 162.743C255.272 162.323 255.071 161.344 254.95 160.486L253.345 149.122C254.288 149.685 255.162 150.361 255.944 151.131C256.073 151.258 256.205 151.397 256.246 151.573ZM246.404 116.806C250.159 120.789 254.047 124.647 258.058 128.373C255.353 130.959 252.563 133.672 251.262 137.182L245.751 116.57C245.989 116.541 246.239 116.631 246.404 116.806ZM301.445 115.02C301.269 112.802 301.134 110.404 302.332 108.529L315.34 108.857L301.715 118.409L301.445 115.02ZM272.227 116.565L269.672 115.438L269.733 114.747C269.35 115.091 268.907 114.776 268.437 114.441C268.017 114.142 267.575 113.827 267.132 113.949C267.027 113.978 266.908 114.024 266.788 114.07C266.41 114.216 266.02 114.367 265.975 114.026C265.957 113.888 266.053 113.763 266.143 113.657L269.374 109.836C269.754 109.386 270.166 108.915 270.73 108.743C271.293 108.571 272.035 108.854 272.123 109.436C272.478 111.793 272.514 114.199 272.227 116.565ZM267.397 108.98C267.623 108.727 268.095 108.773 268.268 109.064C267.674 110.586 266.607 111.92 265.253 112.834C264.864 113.096 264.172 113.218 264.069 112.76C263.946 112.216 263.311 112.102 262.722 111.996C262.597 111.973 262.475 111.951 262.359 111.926C261.065 111.637 260.154 110.189 260.455 108.897C261.826 108.227 263.415 108.231 264.94 108.247C265.822 108.257 266.817 108.316 267.397 108.98ZM297.167 109.13C296.685 109.439 296.347 109.964 296.265 110.531C294.648 110.546 293.037 109.847 291.942 108.656C293.077 108.437 294.29 108.654 295.278 109.252C295.714 108.687 296.662 108.626 297.167 109.13ZM311.101 69.6365C309.713 67.2074 302.014 63.4933 296.424 62.3505C284.634 59.9404 272.211 60.698 260.802 64.5228C270.213 60.0603 281.54 59.4747 292.291 60.5412C301.926 61.4968 315.185 69.7676 311.918 70.5029C309.182 71.1186 297.938 70.5029 291.942 69.057C295.141 68.1163 301.802 68.8898 306.365 69.4199C309.255 69.7556 311.304 69.9936 311.101 69.6365Z" fill="#00160A"/>
<path fill-rule="evenodd" clip-rule="evenodd" d="M143.507 322.753C143.874 323.533 144.028 324.411 143.949 325.268C143.105 324.642 142.331 323.923 141.644 323.128C140.974 323.688 140.152 324.062 139.29 324.198C139.203 323.313 139.732 322.4 140.543 322.036C139.505 321.685 138.234 320.952 138.478 319.883C139.479 319.894 140.478 320.073 141.421 320.412C141.412 319.482 141.887 318.561 142.649 318.029C142.869 319.015 143.088 320 143.308 320.986C143.884 321.233 144.489 321.413 145.107 321.52C144.773 322.127 144.179 322.585 143.507 322.753L143.507 322.753Z" fill="#FFB61D"/>
<path fill-rule="evenodd" clip-rule="evenodd" d="M170.747 271.013C169.818 270.76 168.978 270.19 168.4 269.42C167.787 269.881 167.023 270.141 166.255 270.149C166.479 269.555 166.824 269.006 167.262 268.547C166.586 267.945 165.964 267.284 165.406 266.572C166.339 265.891 167.915 267.475 168.675 266.605C168.909 266.337 168.919 265.945 169.042 265.611C169.166 265.276 169.56 264.965 169.855 265.166C170.211 265.798 170.358 266.545 170.27 267.265C170.788 267.43 171.307 267.594 171.825 267.759C171.806 268.363 171.116 268.842 170.544 268.65C170.612 269.438 170.679 270.225 170.747 271.013H170.747Z" fill="#FFB61D"/>
<path fill-rule="evenodd" clip-rule="evenodd" d="M263.486 172.503C264.006 172.049 264.809 172.404 265.378 172.795C269.206 175.426 272.136 179.138 275.004 182.792C275.286 183.151 275.584 183.567 275.515 184.018C275.447 184.469 274.764 184.767 274.528 184.376C272.043 180.253 268.722 176.636 264.825 173.81C264.315 173.44 263.776 173.062 263.486 172.503L263.486 172.503Z" fill="#00160A"/>
<path fill-rule="evenodd" clip-rule="evenodd" d="M167.896 79.7424C168.019 80.2868 168.052 80.8516 167.993 81.4067C168.452 81.4768 168.888 81.6939 169.221 82.0183C169.104 80.7922 168.791 79.585 168.297 78.4563C168.026 77.8365 166.972 78.0745 166.73 78.706C166.488 79.3376 166.789 80.0403 167.133 80.6226C167.151 80.2041 167.484 79.8197 167.896 79.7424Z" fill="#FFB61D"/>
<path fill-rule="evenodd" clip-rule="evenodd" d="M271.821 182.919C268.34 180.944 264.706 179.24 260.961 177.828C260.137 177.518 259.113 177.9 258.694 178.674C258.173 178.294 258.48 177.378 259.074 177.129C259.669 176.879 260.347 177.075 260.957 177.281C264.215 178.382 267.389 179.73 270.443 181.31C271.109 181.654 271.865 182.171 271.821 182.919H271.821Z" fill="#00160A"/>
<path fill-rule="evenodd" clip-rule="evenodd" d="M256.478 171.889C257.589 174.974 258.006 178.306 257.69 181.57C257.655 181.928 257.508 182.385 257.148 182.387C256.732 182.39 256.631 181.812 256.66 181.396C256.895 177.975 256.445 174.508 255.344 171.26C255.638 170.805 256.295 171.379 256.478 171.889H256.478Z" fill="#00160A"/>
<path fill-rule="evenodd" clip-rule="evenodd" d="M273.673 179.371C271.881 177.274 270.09 175.177 268.298 173.079C268.083 172.828 267.861 172.464 268.055 172.197C270.415 174.147 272.346 176.613 273.673 179.371Z" fill="#00160A"/>
<path fill-rule="evenodd" clip-rule="evenodd" d="M73.0475 181.639C72.7584 181.464 72.5984 181.099 72.6657 180.768C72.8537 180.572 73.2087 180.578 73.3908 180.778C73.5649 181.102 73.401 181.559 73.0612 181.698L73.0475 181.639Z" fill="#00160A"/>
<path fill-rule="evenodd" clip-rule="evenodd" d="M264.353 16.373C264.141 16.4052 263.928 16.4375 263.715 16.4697C263.599 16.2763 263.554 16.0408 263.591 15.818C263.775 15.6982 264.006 15.6533 264.222 15.6955C264.342 15.8774 264.385 16.1093 264.337 16.3223L264.353 16.373Z" fill="#00160A"/>
<path fill-rule="evenodd" clip-rule="evenodd" d="M195.372 144.555C194.756 147.221 191.529 148.919 188.968 147.956C188.627 147.828 188.474 147.441 188.362 147.094C186.896 142.545 185.928 137.835 185.48 133.075C185.399 132.214 185.337 131.328 185.583 130.498C186.12 128.692 188.261 127.543 190.062 128.095C191.29 128.471 192.236 129.492 192.813 130.638C193.391 131.785 193.648 133.061 193.9 134.32C194.316 136.397 194.732 138.475 195.147 140.552C195.411 141.873 195.675 143.242 195.372 144.555M189.604 147.066C190.006 147.415 190.593 147.464 191.116 147.37C193.36 146.967 194.591 144.384 194.518 142.106C194.445 139.827 193.465 137.688 192.967 135.463C192.621 133.914 192.489 132.266 191.662 130.911C190.834 129.556 188.974 128.641 187.631 129.487C186.275 130.341 186.288 132.292 186.504 133.88C187.053 137.914 187.879 141.91 188.977 145.831C189.103 146.282 189.249 146.759 189.604 147.066Z" fill="#FFB61D"/>
<path fill-rule="evenodd" clip-rule="evenodd" d="M192.641 144.787C192.167 145.091 191.502 144.888 191.116 144.479C190.73 144.069 190.557 143.508 190.404 142.967C189.497 139.755 188.869 136.464 188.528 133.144C188.481 132.689 188.442 132.211 188.619 131.789C188.796 131.367 189.262 131.029 189.702 131.154C190.131 131.276 190.342 131.749 190.491 132.17C191.727 135.647 192.605 139.25 193.11 142.905C193.203 143.584 193.217 144.417 192.641 144.787M189.261 131.758C189.348 135.752 190.093 139.731 191.459 143.486C191.615 143.915 192.05 144.434 192.416 144.16C192.155 139.877 191.078 135.645 189.261 131.758Z" fill="#FFB61D"/>
<path fill-rule="evenodd" clip-rule="evenodd" d="M282.701 80.3271L281.124 84.5172C280.769 84.4425 280.351 84.3513 279.88 84.2485C275.621 83.3191 267.02 81.442 261.167 82.2662C255.509 83.063 252.963 86.9043 252.477 89.9648C251.787 94.3117 252.401 98.8572 254.219 102.865C253.537 102.963 254.297 103.036 256.06 103.09C256.279 103.14 256.518 103.154 256.736 103.155L260.112 103.166C266.971 103.246 278.331 103.227 287.629 103.177C287.658 103.221 287.687 103.264 287.716 103.307C291.211 103.439 294.711 103.414 298.204 103.232C298.726 103.204 299.254 103.172 299.769 103.083C302.48 103.052 303.686 103.022 302.465 103.004C305.496 100.479 302.596 95.5996 299.451 93.2179C294.468 89.4444 288.767 86.6216 282.746 84.9455L284.149 79.7957C288.412 79.2713 292.565 77.871 296.274 75.7072C297.364 78.1931 299.447 74.5738 291.023 70.3197C291.52 72.3447 292.961 74.1169 294.843 75.0149C291.868 77.0313 288.304 78.1665 284.711 78.2418C283.863 75.1484 285.698 71.5589 288.702 70.4349C283.602 70.4349 272.555 73.4885 266.84 76.5198C263.759 78.1534 263.452 80.8749 263.817 81.3104C267.223 74.4583 278.602 73.8657 282.701 80.3271ZM299.769 103.083C300.17 103.014 300.562 102.911 300.936 102.749C301.789 102.379 302.54 101.641 302.669 100.72C302.699 100.506 302.696 100.288 302.692 100.07V100.07C302.687 99.75 302.682 99.4313 302.783 99.1305C302.816 99.0345 302.858 98.9344 302.9 98.8331C303.054 98.4664 303.214 98.084 302.953 97.8264C297.545 92.4802 290.762 88.5361 283.441 86.4802C283.026 86.3637 282.535 86.267 282.2 86.5387C282.012 86.6916 281.919 86.9297 281.833 87.1568L279.902 92.2935C282.088 93.0421 283.607 95.0387 284.653 97.0989C285.028 97.8378 285.361 98.5994 285.693 99.3606C286.268 100.674 286.841 101.986 287.629 103.177C292.599 103.151 296.98 103.116 299.769 103.083ZM260.112 103.166L271.803 103.202C272.767 103.205 273.41 102.241 273.868 101.393L278.389 93.0231C275.79 93.5239 273.306 94.4449 270.819 95.3668C269.303 95.9288 267.786 96.4911 266.241 96.9588C262.163 98.1936 257.589 98.7214 253.763 96.8471C253.821 98.6341 254.534 100.393 255.738 101.714C255.413 101.84 255.231 102.25 255.357 102.576C255.47 102.869 255.744 103.017 256.06 103.09C257.095 103.121 258.475 103.146 260.112 103.166ZM255.055 95.9829C253.47 95.0278 252.457 92.9293 253.242 91.254C256.496 84.3148 258.95 83.0604 266.587 83.7122C270.955 84.0851 275.304 84.6649 279.617 85.4491C280.19 85.5532 280.939 86.009 280.642 86.509C280.846 88.9277 279.223 91.3817 276.917 92.1408L270.266 94.3305C267.053 95.3881 263.81 96.4523 260.446 96.801C258.605 96.9918 256.64 96.938 255.055 95.9829ZM274.111 103.147C276.952 102.874 279.814 102.965 282.667 103.057L285.863 103.16C284.946 100.203 283.53 97.4011 281.692 94.9093C281.341 94.4333 280.948 93.9479 280.398 93.7318C279.847 93.5156 279.102 93.6837 278.878 94.2309C277.597 97.3547 275.997 100.347 274.111 103.147ZM282.795 78.2161C282.527 78.298 282.244 78.1737 281.994 78.0481C279.805 76.949 277.78 75.5235 276.007 73.8334C277.867 72.9227 279.945 72.4587 282.016 72.4912C282.302 72.4957 282.558 72.3546 282.813 72.214C282.9 72.1658 282.988 72.1176 283.076 72.0754C283.423 71.91 283.913 71.869 284.123 72.1906C284.256 72.3944 284.217 72.6609 284.174 72.9003L283.396 77.2133C283.323 77.618 283.188 78.0958 282.795 78.2161Z" fill="white"/>
</svg>
