<svg width="96" height="100" viewBox="0 0 96 100" fill="none" xmlns="http://www.w3.org/2000/svg">
<path fill-rule="evenodd" clip-rule="evenodd" d="M45.3344 21.2717C46.1047 20.7098 47.0347 20.4004 47.9981 20.4004C48.9615 20.4004 49.8916 20.7098 50.6619 21.2717C51.4192 21.8242 51.9824 22.5909 52.2943 23.4592L57.7158 37.6804L72.1918 38.6516C74.3806 38.7996 75.8097 40.3645 76.2946 41.9963C76.7753 43.6142 76.4464 45.6458 74.861 47.019C74.8603 47.0196 74.8595 47.0203 74.8588 47.0209L63.6536 56.7563L67.2773 71.5968C67.7575 73.5714 66.9811 75.4378 65.609 76.5202C64.2133 77.6211 62.1325 77.9383 60.3253 76.7509L60.319 76.7467L47.9978 68.5977L36.5544 76.1463C36.5532 76.1471 36.5521 76.1479 36.5509 76.1486C34.5854 77.4493 32.3243 77.0957 30.8087 75.8956C29.3136 74.7117 28.4632 72.6698 28.9946 70.5003C28.9948 70.4996 28.9949 70.4989 28.9951 70.4981L32.3427 56.7564L21.1375 47.0209C21.1367 47.0203 21.136 47.0197 21.1352 47.019C19.5499 45.6459 19.2209 43.6143 19.7017 41.9963C20.1866 40.3645 21.6156 38.7996 23.8044 38.6516L38.2804 37.6804L43.7019 23.4593C44.0138 22.5909 44.577 21.8242 45.3344 21.2717ZM47.719 68.4134L49.0981 66.3282L47.7176 68.4124C47.7181 68.4128 47.7185 68.4131 47.719 68.4134ZM50.4772 64.243C50.4777 64.2433 50.4782 64.2436 50.4787 64.2439L62.2333 72.0182L58.7661 57.819C58.5626 56.9647 58.5947 56.0689 58.8598 55.2308C59.1244 54.3945 59.6141 53.639 60.2863 53.0583C60.2881 53.0568 60.2898 53.0553 60.2916 53.0537L71.1786 43.5949L57.1219 42.6517C57.1186 42.6515 57.1154 42.6513 57.1121 42.6511C56.206 42.5942 55.3454 42.2649 54.6337 41.7165C53.9296 41.1739 53.4037 40.4427 53.1041 39.6196L47.9981 26.2261L42.8922 39.6195C42.5926 40.4427 42.0667 41.1739 41.3625 41.7165C40.6509 42.2649 39.7903 42.5942 38.8841 42.6511L24.8177 43.5949L35.7047 53.0537C35.7063 53.0552 35.7079 53.0566 35.7096 53.058C36.382 53.6387 36.8718 54.3944 37.1364 55.2308C37.4015 56.0689 37.4336 56.9647 37.2301 57.8189L37.2271 57.8314L33.8511 71.6895C33.8251 71.7957 33.8393 71.8546 33.8502 71.8851C33.8556 71.9005 33.8626 71.9145 33.8704 71.927L45.5176 64.2439C45.5185 64.2433 45.5194 64.2427 45.5204 64.2421C46.2526 63.7578 47.1123 63.4947 47.9981 63.4947C48.8845 63.4947 49.7447 63.7582 50.4772 64.243ZM71.5869 43.2401C71.5867 43.2403 71.5871 43.2399 71.5869 43.2401ZM48.2787 68.4124C48.2774 68.4133 48.276 68.4142 48.2747 68.4151Z" fill="black"/>
<path fill-rule="evenodd" clip-rule="evenodd" d="M48 95C71.5578 95 91 75.0471 91 50C91 24.9529 71.5578 5 48 5C24.4422 5 5 24.9529 5 50C5 75.0471 24.4422 95 48 95ZM48 100C74.5097 100 96 77.6142 96 50C96 22.3858 74.5097 0 48 0C21.4903 0 0 22.3858 0 50C0 77.6142 21.4903 100 48 100Z" fill="black"/>
</svg>
