<svg width="380" height="762" viewBox="0 0 380 762" fill="none" xmlns="http://www.w3.org/2000/svg">
<path fill-rule="evenodd" clip-rule="evenodd" d="M303 27H77C49.3858 27 27 49.3858 27 77V685C27 712.614 49.3858 735 77 735H303C330.614 735 353 712.614 353 685V77C353 49.3858 330.614 27 303 27ZM77 7C38.3401 7 7 38.3401 7 77V685C7 723.66 38.3401 755 77 755H303C341.66 755 373 723.66 373 685V77C373 38.3401 341.66 7 303 7H77Z" fill="black"/>
<path fill-rule="evenodd" clip-rule="evenodd" d="M303 27H77C49.3858 27 27 49.3858 27 77V685C27 712.614 49.3858 735 77 735H303C330.614 735 353 712.614 353 685V77C353 49.3858 330.614 27 303 27ZM77 7C38.3401 7 7 38.3401 7 77V685C7 723.66 38.3401 755 77 755H303C341.66 755 373 723.66 373 685V77C373 38.3401 341.66 7 303 7H77Z" fill="black" fill-opacity="0.2"/>
<path fill-rule="evenodd" clip-rule="evenodd" d="M77 0H303C345.526 0 380 34.4741 380 77V685C380 727.526 345.526 762 303 762H77C34.4741 762 0 727.526 0 685V77C0 34.4741 34.4741 0 77 0ZM77 7C38.3401 7 7 38.3401 7 77V685C7 723.66 38.3401 755 77 755H303C341.66 755 373 723.66 373 685V77C373 38.3401 341.66 7 303 7H77Z" fill="#C0C0C0"/>
<path fill-rule="evenodd" clip-rule="evenodd" d="M77 0H303C345.526 0 380 34.4741 380 77V685C380 727.526 345.526 762 303 762H77C34.4741 762 0 727.526 0 685V77C0 34.4741 34.4741 0 77 0ZM77 7C38.3401 7 7 38.3401 7 77V685C7 723.66 38.3401 755 77 755H303C341.66 755 373 723.66 373 685V77C373 38.3401 341.66 7 303 7H77Z" fill="white" fill-opacity="0.2"/>
<path d="M100 34.5C100 22.0736 110.074 12 122.5 12H258.5C270.926 12 281 22.0736 281 34.5V34.5C281 46.9264 270.926 57 258.5 57H122.5C110.074 57 100 46.9264 100 34.5V34.5Z" fill="black"/>
<path d="M173 32C173 30.8954 173.895 30 175 30H207C208.105 30 209 30.8954 209 32V32C209 33.1046 208.105 34 207 34H175C173.895 34 173 33.1046 173 32V32Z" fill="#808080"/>
<path d="M222 32C222 29.2386 224.239 27 227 27V27C229.761 27 232 29.2386 232 32V32C232 34.7614 229.761 37 227 37V37C224.239 37 222 34.7614 222 32V32Z" fill="#808080"/>
</svg>
