<svg width="392" height="392" viewBox="0 0 392 392" fill="none" xmlns="http://www.w3.org/2000/svg">
<rect width="392" height="392" fill="white"/>
<path fill-rule="evenodd" clip-rule="evenodd" d="M172.636 70.3817C164.341 76.7059 157.395 84.5616 152.153 93.5044C143.564 91.7901 134.308 91.4253 124.938 92.7675C127.29 82.5493 132.109 72.9323 139.07 64.8989C140.691 63.0382 143.09 62.0399 145.552 62.2176C155.132 62.8971 164.383 65.7352 172.636 70.3817ZM195.999 118.535C204.298 109.365 214.007 102.657 224.333 98.2764C218.187 89.0618 209.688 81.4883 199.506 76.3976C197.301 75.2947 194.698 75.2947 192.492 76.3976C182.311 81.4883 173.812 89.0618 167.666 98.2764C177.992 102.657 187.701 109.366 195.999 118.535ZM245.992 195.999C253.153 192.43 259.723 187.715 265.451 181.987C282.736 164.697 288.788 139.123 281.048 115.906C280.269 113.57 278.429 111.73 276.093 110.951C252.897 103.221 227.317 109.247 210.012 126.547C204.284 132.276 199.564 138.846 195.999 146.012C192.435 138.846 187.715 132.276 181.987 126.547C164.697 109.263 139.123 103.21 115.906 110.951C113.564 111.73 111.73 113.57 110.951 115.906C103.221 139.102 109.247 164.681 126.547 181.987C132.271 187.71 138.846 192.43 146.006 195.999C138.846 199.569 132.276 204.284 126.547 210.012C109.263 227.302 103.21 252.876 110.951 276.093C111.73 278.429 113.57 280.269 115.906 281.048C139.102 288.778 164.681 282.752 181.987 265.451C187.715 259.723 192.435 253.153 195.999 245.987C199.564 253.153 204.284 259.723 210.012 265.451C227.396 282.835 253.001 288.747 276.093 281.048C278.434 280.269 280.269 278.429 281.048 276.093C288.778 252.897 282.752 227.318 265.451 210.012C259.728 204.289 253.153 199.569 245.992 195.999ZM312.774 199.506C308.08 208.894 301.28 216.843 293.027 222.849C288.592 212.959 282.103 203.818 273.464 195.999C281.752 188.499 288.401 179.469 293.022 169.145C301.275 175.15 308.08 183.105 312.774 192.492C313.876 194.698 313.876 197.301 312.774 199.506ZM98.9767 222.854C103.598 212.53 110.247 203.5 118.535 195.999C109.896 188.181 103.406 179.039 98.9715 169.15C90.7186 175.155 83.9187 183.105 79.2251 192.492C78.1223 194.698 78.1223 197.301 79.2251 199.506C83.9187 208.894 90.7238 216.849 98.9767 222.854ZM224.438 293.764C218.328 302.66 210.007 309.977 200.081 314.943C197.93 316.014 195.345 316.074 193.072 314.943C183.006 309.909 174.586 302.451 168.455 293.377C178.844 288.841 188.173 282.111 195.999 273.464C204.311 282.648 214.051 289.37 224.438 293.764ZM327.1 255.996C318.931 263.078 309.12 267.939 298.709 270.244C300.658 259.707 300.48 248.867 298.149 238.33C306.313 233.135 313.495 226.476 319.323 218.652C325.328 227.809 328.992 238.445 329.781 249.515C329.959 251.977 328.96 254.376 327.1 255.996ZM252.928 327.1C259.895 319.066 264.709 309.444 267.061 299.226C258.126 300.519 248.861 300.268 240.013 298.52C234.661 307.448 227.6 315.261 219.19 321.523C227.485 326.227 236.804 329.096 246.447 329.781C246.635 329.797 246.818 329.802 247.006 329.802C249.269 329.802 251.433 328.825 252.928 327.1ZM145.552 329.781C155.456 329.076 165.01 326.07 173.467 321.147C165.209 314.906 158.278 307.155 153.015 298.322C143.905 300.233 134.298 300.585 124.938 299.231C127.29 309.449 132.109 319.066 139.07 327.1C140.565 328.825 142.729 329.802 144.992 329.802C145.18 329.802 145.363 329.797 145.552 329.781ZM267.061 92.7675C257.691 91.4253 248.435 91.7901 239.846 93.5044C234.603 84.5616 227.657 76.7059 219.363 70.3817C227.615 65.7352 236.867 62.8971 246.447 62.2176C248.909 62.0399 251.308 63.0382 252.928 64.8989C259.89 72.9323 264.709 82.5493 267.061 92.7675ZM64.8988 256.974C73.1204 264.103 82.9988 268.979 93.4887 271.263C91.3301 260.408 91.4451 249.202 93.8546 238.33C85.8473 233.239 78.7861 226.743 73.0211 219.112C66.8118 228.384 63.0172 239.213 62.2175 250.493C62.0398 252.954 63.0381 255.353 64.8988 256.974ZM329.781 142.484C328.992 153.554 325.328 164.19 319.323 173.347C313.495 165.517 306.313 158.864 298.144 153.669C300.475 143.137 300.658 132.292 298.709 121.755C309.12 124.06 318.931 128.92 327.1 136.002C328.96 137.623 329.959 140.022 329.781 142.484ZM72.6761 173.347C78.5038 165.523 85.6853 158.864 93.8493 153.669C91.5182 143.132 91.3458 132.286 93.2901 121.755C82.8786 124.06 73.0681 128.92 64.8988 136.002C63.0381 137.623 62.0398 140.022 62.2175 142.484C63.0068 153.554 66.6707 164.19 72.6761 173.347ZM172.479 195.999C172.479 183.032 183.032 172.479 195.999 172.479C208.967 172.479 219.519 183.032 219.519 195.999C219.519 208.967 208.967 219.519 195.999 219.519C183.032 219.519 172.479 208.967 172.479 195.999ZM188.159 195.999C188.159 200.327 191.672 203.839 195.999 203.839C200.327 203.839 203.839 200.327 203.839 195.999C203.839 191.672 200.327 188.159 195.999 188.159C191.672 188.159 188.159 191.672 188.159 195.999Z" fill="#EF8D72"/>
<path d="M135.007 314.476C125.699 314.55 118.382 314.964 112.187 315.837C97.2923 317.937 88.4367 322.868 84.5139 332.17C82.5114 336.918 83.4757 341.022 87.1529 344.218C90.31 346.962 95.4462 349.037 102.437 350.556L102.828 350.64C114.787 353.178 131.769 354.097 153.303 353.774L154.627 353.753C164.743 353.579 175.116 353.163 187.601 352.492L200.031 351.787C204.398 351.535 208.898 351.277 210.5 351.191L212.666 351.079C217.267 350.85 220.233 350.765 222.063 350.822L224.116 350.9C253.791 351.987 276.95 350.503 291.849 347.004C298.646 345.409 303.508 343.43 306.227 341.178C309.172 338.74 309.68 335.805 307.497 333.213C300.686 325.127 289.507 320.558 271.446 318.122L270.513 317.999C255.507 316.052 236.843 315.454 201.375 315.43L196.272 315.425C189.37 315.405 182.763 315.311 173.992 315.123L152.417 314.632C145.96 314.498 142.328 314.456 138.281 314.462L135.007 314.476Z" fill="white"/>
<ellipse cx="196.165" cy="340.904" rx="111.368" ry="11.6247" fill="#E7EAEE"/>
<path fill-rule="evenodd" clip-rule="evenodd" d="M219.006 258.367C221.028 258.723 222.413 256.748 225.543 250.162L225.774 249.684L226.001 249.229C229.733 241.892 234.048 239.553 238.946 242.212L240.912 236.411L240.252 236.107L239.617 235.821C229.447 231.277 223.955 231.001 223.139 234.992L223.058 235.428L222.991 235.78C222.393 238.823 220.934 244.683 219.878 249.672L219.7 250.524C218.819 254.8 218.303 258.243 219.006 258.367Z" fill="white"/>
<path fill-rule="evenodd" clip-rule="evenodd" d="M197.35 199.525C197.35 199.525 212.217 201.495 219.736 201.153C227.256 200.812 238.252 197.668 238.252 197.668L237.991 207.163C237.991 207.163 273.07 206.455 267.773 235.191C264.284 254.118 237.587 246.335 237.587 246.335L242.693 235.191C242.693 235.191 258.706 236.349 252.875 231.477C251.793 230.573 244.878 229.326 235.778 229.57C227.961 229.779 221.172 227.437 220.465 225.335C217.817 217.453 221.663 213.306 221.663 213.306C221.663 213.306 217.942 215.117 218.648 219.519C219.354 223.922 214.155 314.062 214.155 314.062C214.155 314.062 209.451 314.896 207.086 314.896C204.721 314.896 201.465 314.062 201.465 314.062L197.35 199.525Z" fill="white"/>
<path fill-rule="evenodd" clip-rule="evenodd" d="M197.35 199.525C197.35 199.525 205.192 314.806 204.1 314.625C203.276 314.489 201.465 314.062 201.465 314.062L197.35 199.525Z" fill="#E7EAEE"/>
<path fill-rule="evenodd" clip-rule="evenodd" d="M203.807 315.838C204.323 320.374 203.359 322.192 203.486 322.192C205.588 322.192 206.843 322.15 210.214 321.888C210.214 321.888 210.025 319.934 210.025 319.015C210.025 317.918 210.214 315.838 210.214 315.838H203.807Z" fill="white"/>
<path d="M198.611 94.6266C198.611 94.6266 190.771 97.5706 190.771 92.0288C190.771 86.4871 196.82 89.2497 196.82 89.2497" fill="white"/>
<path d="M233.109 95.205C234.755 95.5711 239.904 98.7821 239.904 91.0076C239.904 87.2973 234.024 89.9773 234.024 89.9773" fill="white"/>
<path d="M214.398 62.7806C207.921 63.409 194.347 69.568 196.819 87.1649C198.734 100.806 208.937 115.509 215.207 115.509C221.362 115.509 231.726 103.131 233.231 90.9449C236.304 66.057 220.875 62.1523 214.398 62.7806Z" fill="white"/>
<path fill-rule="evenodd" clip-rule="evenodd" d="M214.638 75.3729C214.983 74.5739 216.095 74.5207 216.514 75.2832C218.652 79.1717 221.046 81.8815 223.68 83.4328C226.34 84.9991 229.479 85.1537 232.681 83.7181C233.207 83.4819 233.826 83.7175 234.062 84.2443C234.298 84.7711 234.063 85.3896 233.536 85.6258C229.72 87.3367 225.867 87.1469 222.619 85.2343C220.088 83.7437 217.808 81.3749 215.77 78.1403L215.695 78.02L215.628 78.1508C213.982 81.2758 211.858 83.7715 209.258 85.6256L208.997 85.8089C205.723 88.0618 201.881 89.0635 197.508 88.8167C196.932 88.7842 196.491 88.2905 196.523 87.7141C196.556 87.1377 197.049 86.6968 197.626 86.7294C201.549 86.9507 204.931 86.0689 207.811 84.0867C210.719 82.0855 212.994 79.1887 214.638 75.3729Z" fill="#E7EAEE"/>
<path fill-rule="evenodd" clip-rule="evenodd" d="M248.071 175.498C247.441 187.361 243.009 192.394 237.47 193.117C236.734 193.213 237.764 197.441 237.123 197.995C233.473 201.153 227.037 201.29 216.946 201.381C207.81 201.464 201.918 200.727 197.824 199.048C197.511 198.92 197.793 193.599 197.469 193.57C192.34 193.117 186.432 188.565 184.996 176.186C180.136 134.272 194.755 126.172 208.67 119.494C209.425 119.131 209.835 118.5 210.585 118.141C212.167 117.385 211.754 119.127 215.35 119.127C218.945 119.127 218.945 117.761 220.565 118.535C221.169 118.824 221.269 120.627 221.87 120.944C236.109 128.457 249.814 142.712 248.071 175.498Z" fill="white"/>
<path fill-rule="evenodd" clip-rule="evenodd" d="M221.871 120.944C240.674 127.749 249.408 145.934 248.072 175.498C246.47 210.945 206.212 179.213 219.633 148.676C222.83 141.4 227.032 172.204 227.078 172.334C228.148 175.363 231.418 177.712 234.725 178.968C234.725 178.968 236.205 157.617 233.632 147.551C231.212 138.082 221.871 120.944 221.871 120.944Z" fill="white"/>
<path fill-rule="evenodd" clip-rule="evenodd" d="M209.762 113.941C209.762 113.941 210.29 115.525 210.106 116.504C209.923 117.483 208.801 119.067 208.801 119.067C208.801 119.067 177.586 128.589 184.814 176.109C192.855 210.571 221.046 188.159 216.155 160.68C215.952 140.275 211.333 147.184 207.862 169.669C207.014 175.169 196.581 176.731 196.581 176.731" fill="white"/>
<ellipse cx="224.484" cy="100.613" rx="2.87466" ry="2.35201" fill="#FFB61D"/>
<ellipse cx="207.236" cy="100.613" rx="2.87466" ry="2.35201" fill="#FFB61D"/>
<path d="M210.137 103.785C210.262 103.222 212.835 103.664 213.559 104.627L213.782 104.925C214.457 105.819 214.868 106.101 215.738 106.101C216.85 106.101 217.229 105.902 217.861 105.074L218.029 104.847C218.763 103.842 221.352 103.112 221.549 103.655C221.745 104.198 221.464 104.797 220.922 104.994C220.515 105.141 220.283 105.334 219.886 105.854L219.7 106.105C218.615 107.59 217.713 108.192 215.738 108.192C214.135 108.192 213.206 107.592 212.216 106.318L211.888 105.883L211.74 105.691C211.413 105.277 211.214 105.11 210.983 105.044L210.933 105.031C210.369 104.907 210.013 104.349 210.137 103.785Z" fill="#00160A"/>
<path d="M212.168 88.243C210.923 87.862 209.787 87.7528 209.131 87.8325C208.424 87.9183 207.53 88.2827 206.706 88.6188C206.046 88.888 205.431 89.139 204.991 89.2145C204.554 89.2895 203.898 89.2652 203.26 89.2414C202.452 89.2114 201.671 89.1823 201.393 89.3562C200.894 89.6676 201.639 90.1708 202.074 90.2284C203.581 90.4277 204.677 90.4751 205.404 90.3589C206.049 90.2558 206.631 90.0773 207.421 89.7739L208.247 89.46C208.795 89.2559 208.937 89.2229 209.131 89.2186L209.267 89.2189C209.819 89.2327 210.634 89.3983 211.691 89.7214C212.11 89.8498 212.557 89.6228 212.689 89.2145C212.821 88.8063 212.587 88.3713 212.168 88.243Z" fill="#00160A"/>
<path d="M215.249 99.4604C215.839 97.7379 216.181 89.2521 215.532 89.2454C214.882 89.2386 214.35 89.7597 214.344 90.4091C214.334 91.3222 214.34 92.1981 214.345 93.0193C214.361 95.484 214.374 97.456 213.962 98.464L213.874 98.6721C213.342 99.9932 213.193 101.117 214.616 101.38C215.465 101.537 219.279 99.374 219.06 98.7628C218.84 98.1516 218.166 97.8342 217.555 98.0539L217.395 98.1109C217.032 98.2382 216.557 98.6353 216.13 98.9929C215.751 99.3105 215.409 99.5969 215.215 99.6352L215.185 99.6406L215.249 99.4604Z" fill="#00160A"/>
<path d="M220.078 88.243C221.323 87.862 222.459 87.7528 223.115 87.8325C223.822 87.9183 224.716 88.2827 225.54 88.6188C226.2 88.888 226.815 89.139 227.255 89.2145C227.692 89.2895 228.348 89.2652 228.986 89.2414C229.794 89.2114 230.575 89.1823 230.853 89.3562C231.352 89.6676 230.607 90.1708 230.172 90.2284C228.665 90.4277 227.569 90.4751 226.842 90.3589C226.197 90.2558 225.615 90.0773 224.825 89.7739L223.999 89.46C223.451 89.2559 223.309 89.2229 223.115 89.2186L222.979 89.2189C222.427 89.2327 221.612 89.3983 220.555 89.7214C220.136 89.8498 219.689 89.6228 219.557 89.2145C219.425 88.8063 219.658 88.3713 220.078 88.243Z" fill="#00160A"/>
<path d="M226.807 94.152C227.135 93.5917 226.948 92.8712 226.387 92.5428C226.19 92.427 226.033 92.6469 225.795 92.9801C225.359 93.5918 224.651 94.5853 222.918 94.5853C221.172 94.5853 220.455 93.5824 220.02 92.9723C219.787 92.6472 219.635 92.4336 219.448 92.5428C218.888 92.8712 218.7 93.5917 219.029 94.152C219.857 95.5658 221.206 96.3013 222.918 96.3013C224.63 96.3013 225.978 95.5658 226.807 94.152Z" fill="#00160A"/>
<path d="M211.794 92.5687C212.34 92.9204 212.498 93.6481 212.146 94.1942C211.246 95.592 209.807 96.3013 207.978 96.3013C206.134 96.3013 204.71 95.5791 203.872 94.1534C203.543 93.5936 203.416 92.8383 204.289 92.5436C204.671 92.4148 205.058 92.7874 205.536 93.2477C206.152 93.8408 206.919 94.5796 208.022 94.5796C210.108 94.5796 210.846 93.5342 211.268 92.9377C211.48 92.6374 211.612 92.4509 211.794 92.5687Z" fill="#00160A"/>
<path fill-rule="evenodd" clip-rule="evenodd" d="M215.52 38.9232C208.93 40.0986 203.883 45.0912 202.897 52.4669C202.85 52.8175 202.819 53.1595 202.805 53.4928C201.662 53.851 198.28 54.943 198.373 55.284C198.459 55.6014 201.459 54.888 202.812 54.5493C203.007 57.7831 204.834 60.1014 207.913 61.5198C208.696 61.8807 209.538 62.1772 210.433 62.4162C207.252 63.4182 204 65.2513 201.431 67.7699C196.684 72.4237 194.484 78.9876 195.656 87.3285C195.666 87.4037 195.677 87.479 195.688 87.5543C191.901 86.3879 189.598 87.9358 189.598 92.0289C189.598 96.1352 195.602 98.4429 198.142 96.7735C200.702 103.552 204.688 109.819 208.696 113.447C208.574 113.709 208.549 114.017 208.647 114.313C208.942 115.196 209.031 115.863 208.952 116.288L208.935 116.365C208.845 116.739 208.584 117.273 208.147 117.94L208.064 118.066L207.819 118.143C186.834 124.882 178.804 144.412 183.653 176.286L183.67 176.376L183.76 176.752C186.099 186.444 190.528 192.099 196.044 193.565C196.043 193.591 196.043 193.618 196.044 193.645C197.008 226.291 197.851 252.303 198.573 271.682L198.834 278.564L199.096 285.086C199.465 294.051 199.796 300.944 200.09 305.766L200.278 308.726C200.6 313.569 200.789 314.635 201.48 315.123L201.547 315.168L201.599 315.199C201.748 315.285 201.931 315.362 202.15 315.431C201.892 315.43 201.634 315.43 201.375 315.43L196.272 315.425C189.37 315.405 182.763 315.311 173.992 315.123L152.417 314.632C145.96 314.498 142.328 314.456 138.281 314.462L135.007 314.476C125.699 314.55 118.382 314.964 112.187 315.837C97.2923 317.937 88.4367 322.868 84.5139 332.17C82.5114 336.918 83.4757 341.022 87.1529 344.218C90.31 346.962 95.4462 349.037 102.437 350.556L102.828 350.64C114.787 353.178 131.769 354.097 153.303 353.774L154.627 353.753C164.743 353.579 175.116 353.163 187.601 352.492L200.031 351.787C204.398 351.535 208.898 351.277 210.5 351.191L212.666 351.079C217.267 350.85 220.233 350.765 222.063 350.822L224.116 350.9C253.791 351.987 276.95 350.503 291.849 347.004C298.646 345.409 303.508 343.43 306.227 341.178C309.172 338.74 309.68 335.805 307.497 333.213C300.686 325.126 289.507 320.558 271.446 318.122L270.513 317.999C257.574 316.32 241.915 315.644 215.109 315.475L215.256 315.465C215.922 315.42 216.448 314.879 216.473 314.211L218.413 259.81C218.467 259.811 218.524 259.81 218.582 259.806C221.116 259.632 222.832 258.066 225.958 252.175L226.33 251.467L226.755 250.643C227.517 249.236 229.541 247.05 231.276 245.176L231.277 245.176C232.415 243.946 233.43 242.851 233.88 242.199C234.815 242.382 236.173 242.525 237.955 242.629L238.177 242.642L236.764 246.075L236.737 246.147C236.56 246.685 236.846 247.274 237.39 247.461C256.041 253.876 266.181 248.869 268.8 235.39C272.535 216.166 262.426 206.507 239.132 206.753L239.5 194.447C240.931 194.245 242.271 193.669 243.473 192.693C246.874 189.933 248.857 184.213 249.248 175.551C250.578 146.124 241.989 127.597 223.421 120.273L222.79 120.029L222.73 119.863C222.403 118.938 222.184 118.189 222.073 117.625L222.049 117.498C221.932 116.837 221.932 115.731 222.063 114.218C222.079 114.03 222.05 113.848 221.984 113.684C226.558 109.983 231.023 103.334 233.201 96.4579L233.256 96.477C233.279 96.4849 233.303 96.4932 233.327 96.5018L234.33 96.8585C234.989 97.0801 235.54 97.2227 236.104 97.2968C239.198 97.7032 241.081 95.6868 241.081 91.0076C241.081 89.239 240.229 88.0154 238.638 87.7365C237.597 87.5541 236.289 87.7954 234.666 88.4279C235.441 78.2571 233.058 70.9822 228.201 66.4357C226.371 64.7228 224.23 63.4679 222.007 62.6573C224.073 62.1045 226.144 61.169 227.754 59.8889C231.447 56.952 232.612 52.5347 230.493 46.7979L237.695 45.1908L237.753 45.1708C237.995 45.0708 238.056 44.4708 238.056 44.0226C238.056 43.5745 237.688 43.0611 237.41 43.1399L230.041 45.6778C227.672 40.4157 221.699 37.821 215.52 38.9232ZM204.28 317.002L204.634 317.002C206.331 317.005 207.988 317.012 209.606 317.023C209.482 318.443 209.452 320.173 209.575 321.44H204.654C204.606 320.427 204.479 318.552 204.28 317.002ZM202.837 317C202.725 317.897 202.633 318.908 202.551 319.817C202.487 320.531 202.428 321.182 202.369 321.664C202.329 321.696 202.29 321.731 202.255 321.769C199.503 324.692 196.656 326.594 193.715 327.497L193.236 327.64C190.72 328.375 186.01 329.535 186.103 329.508C184.05 330.093 183.056 330.768 182.706 332.176C182.131 334.494 184.477 335.511 190.561 335.551L191.024 335.552C192.023 335.55 192.905 335.449 194.846 335.142L196.357 334.901C197.88 334.664 198.781 334.563 199.607 334.555L199.964 334.557C200.397 334.568 200.845 334.613 201.823 334.738L203.019 334.894C203.711 334.982 204.2 335.037 204.717 335.079C206.855 335.256 208.489 335.108 209.857 334.451C213.398 332.752 213.829 328.526 211.511 322.129C211.509 322.122 211.506 322.114 211.503 322.107C211.515 322.036 211.521 321.962 211.521 321.888V317.038C241.086 317.299 257.558 318.887 271.097 320.712L272.137 320.856C288.999 323.244 299.316 327.557 305.498 334.896C307.994 337.859 303.492 341.586 291.252 344.46C276.462 347.933 253.202 349.397 223.303 348.254L222.395 348.219C220.255 348.134 216.654 348.249 210.688 348.564L205.202 348.872C203.115 348.992 200.712 349.13 198.44 349.261C195.045 349.457 191.943 349.636 190.622 349.709L187.463 349.882C175.525 350.524 165.527 350.931 155.843 351.117L154.582 351.14C132.602 351.518 115.333 350.622 103.37 348.083C89.4812 345.135 82.8751 340.302 85.8765 333.185C89.3377 324.978 98.3127 319.454 112.131 317.44L112.552 317.38C116.682 316.798 121.345 316.889 126.807 316.996C129.525 317.049 132.44 317.106 135.587 317.085L138.284 317.075C142.66 317.069 171.833 316.645 171.833 316.645C182.047 316.871 189.317 316.979 197.08 316.995L202.837 317ZM220.224 114.956C218.488 116.059 216.776 116.685 215.208 116.685C213.978 116.685 212.657 116.235 211.303 115.42C211.35 115.888 211.338 116.321 211.263 116.721C211.103 117.575 210.599 119.087 209.762 120.27C209.739 120.302 209.714 120.334 209.688 120.364C210.81 121 212.545 121.66 214.94 121.324C217.579 120.955 219.037 120.017 219.923 119.288C219.785 117.888 219.962 116.227 220.224 114.956ZM220.211 120.689C219.116 122.122 217.27 123.676 214.94 123.676C211.43 123.676 209.124 122.805 208.375 120.957C188.961 127.261 180.406 144.797 184.794 175.001L184.926 175.885L184.997 176.186C187.69 187.37 194.043 192.283 200.298 191.517L200.49 191.491C206.091 190.704 211.55 185.312 213.012 179.168L213.228 178.243C214.319 173.501 214.98 169.308 214.98 165.863L214.977 164.433C214.94 156.927 214.619 151.371 214.216 148.921L214.187 148.754L214.142 148.875C213.971 149.337 213.789 149.902 213.597 150.569L213.539 150.772C212.657 153.901 211.622 158.989 210.445 166.056C209.579 171.251 195.687 177.771 195.479 177.156C195.414 176.964 196.552 176.18 198.17 175.065L198.172 175.064L198.179 175.06C198.809 174.625 199.512 174.141 200.245 173.623C200.219 173.574 200.192 173.523 200.165 173.469C198.118 169.363 196.857 165.761 196.391 162.647C195.931 159.568 197.006 147.181 197.689 147.184L197.775 147.187C198.119 147.211 198.043 148.817 197.931 151.196C197.809 153.79 197.643 157.303 197.931 160.692C198.243 164.371 199.874 168.078 201.007 170.652C201.32 171.363 201.595 171.988 201.794 172.502C204.788 170.28 207.79 167.68 208.125 165.67L208.392 164.086C209.45 157.885 210.394 153.31 211.224 150.318L211.276 150.134C211.73 148.522 212.154 147.37 212.572 146.638C213.23 145.487 214.227 144.888 215.274 145.721C216.437 146.646 217.019 150.626 217.233 157.882C217.411 154.632 217.707 152.001 218.108 150.031C218.443 148.384 218.851 147.193 219.36 146.439C220.082 145.369 221.212 145.004 222.239 145.723L222.308 145.773C224.515 147.463 226.003 155.658 226.09 166.316L226.094 167.208L226.115 167.332C227.463 172.426 230.257 175.396 232.791 177.175C237.963 168.699 234.953 152.999 233.676 146.339C233.308 144.42 233.084 143.251 233.241 143.223C233.951 143.094 234.631 143.566 234.759 144.276C236.394 153.313 237.235 159.994 237.281 164.352C237.327 168.763 236.588 173.41 235.07 178.293C235.048 178.364 235.021 178.432 234.989 178.496C235.762 178.893 236.441 179.18 236.953 179.397C237.614 179.676 237.998 179.839 237.948 179.968C237.716 180.575 228.342 180.575 223.758 167.498C223.742 167.453 223.742 167.388 223.742 167.329L223.742 167.309C223.742 161.854 223.368 156.99 222.712 153.28C222.414 151.59 222.064 150.194 221.691 149.17L221.641 149.035C221.475 148.596 221.311 148.252 221.171 148.013L221.166 148.003L221.137 148.061C220.891 148.568 220.638 149.391 220.413 150.5L220.376 150.684C220.262 151.269 220.119 151.917 219.963 152.627C219.291 155.69 218.366 159.902 218.345 165.151L218.343 165.935C218.343 175.092 224.78 186.179 232.097 190.523C239.701 195.038 246.214 190.6 246.898 175.445C248.213 146.344 240.178 126.844 221.472 122.05C220.861 121.893 220.459 121.388 220.211 120.689ZM217.208 168.74C216.941 171.99 216.262 175.667 215.3 179.712C213.623 186.764 207.417 192.893 200.818 193.82C199.677 193.981 198.566 193.99 197.49 193.85C197.557 194.809 197.632 196.193 197.716 197.938C197.951 197.905 198.198 197.936 198.431 198.04C200.153 198.814 209.684 199.884 217.964 200.05L218.579 200.061C228.428 200.209 235.481 199.114 236.806 197.104L236.886 194.42C235.292 194.18 233.626 193.546 231.942 192.546C224.657 188.221 218.315 178.055 217.208 168.74ZM191.95 92.0289C191.746 88.9832 194.213 89.1832 196.033 89.5303C196.421 91.4599 196.961 93.408 197.62 95.3277L197.528 95.3251C195.505 95.269 192.16 95.1762 191.95 92.0289ZM234.521 90.0237C234.484 90.3755 234.444 90.7306 234.399 91.089C234.239 92.3851 233.976 93.6986 233.624 95.0108C235.981 95.2897 239.926 95.4438 239.189 90.2099C238.902 88.1717 236.276 89.2771 234.521 90.0237ZM214.857 61.5656C215.862 61.5059 216.904 61.5415 217.959 61.674C220.628 61.6412 224.622 60.4234 226.452 58.2526C233.632 49.7364 223.677 40.0883 215.945 41.3354C210.204 42.2614 204.786 46.2933 203.924 52.7438C203.51 55.8423 205.533 60.7769 214.857 61.5656ZM199.501 246.625C200.593 278.656 201.768 313.139 202.299 314.062C202.389 314.223 203.751 314.236 204.832 314.246L204.834 314.246H204.839C205.122 314.249 205.386 314.252 205.602 314.257L206.184 314.265L206.844 314.266C208.444 314.258 210.462 314.183 212.894 314.041L213.907 313.979L217.903 218.751C217.793 216.584 215.795 214.109 214.451 212.444C213.652 211.453 213.084 210.75 213.285 210.57C213.815 210.095 217.969 214.753 218.735 216.4C218.749 216.456 218.766 216.531 218.784 216.622C219.256 215.386 219.92 214.09 220.784 212.742C221.095 212.256 225.047 206.773 222.228 212.426C216.189 224.531 223.029 229.451 234.968 229.494L235.012 229.494L235.017 229.494C235.116 229.495 235.19 229.496 235.353 229.475C240.001 228.884 245.046 229.157 249.02 229.676C252.925 230.185 259.677 233.988 252.035 236.136C250.209 236.649 247.275 236.339 243.887 235.602L242.968 235.45L237.588 246.335L238.517 246.536C254.825 251.721 264.282 246.882 266.675 235.354L266.748 234.992C270.161 217.422 262.834 206.548 239.103 207.708L239.072 208.74C239.05 209.462 238.448 210.029 237.726 210.007C237.005 209.985 236.438 209.382 236.46 208.661L236.483 207.878C228.174 208.488 233.616 207.445 236.51 206.98L236.707 200.413C233.285 202.154 226.981 202.803 218.599 202.675L217.912 202.663C209.791 202.5 200.705 201.526 197.837 200.603C198.271 210.544 198.872 228.177 199.501 246.622L199.501 246.625ZM240.642 236.657L238.702 241.367C237.358 241.162 236.431 240.924 235.736 240.746C235.506 240.687 235.301 240.634 235.114 240.591C234.861 238.72 234.868 237.362 235.104 236.561C235.309 235.865 235.606 235.472 235.993 235.295C236.826 235.568 237.807 235.864 238.936 236.185L239.785 236.423L240.642 236.657ZM233.347 240.722C233.449 240.655 233.558 240.604 233.669 240.569C233.387 239.062 233.385 236.771 233.621 235.97C233.782 235.425 233.918 234.997 234.101 234.651C233.833 234.559 233.424 234.349 232.921 234.092C230.605 232.907 226.288 230.697 224.387 234.164C221.179 240.014 218.361 258.394 219.181 258.399C220.348 258.406 223.314 254.258 225.266 250.574L225.352 250.41L225.855 249.43C227.387 246.459 229.835 243.026 233.347 240.722ZM242.503 234.293C242.085 234.22 241.671 234.406 241.446 234.752C241.357 234.698 241.258 234.656 241.151 234.63L233.914 232.843L233.755 232.752C228.251 229.641 224.693 229.905 222.21 233.37C221.329 234.598 220.888 236.143 220.676 238.193L220.651 238.451L220.621 238.805C220.592 239.16 220.57 239.527 220.547 239.98L220.459 241.87L220.442 242.157C220.415 242.602 220.387 242.892 220.348 243.164L220.323 243.327L220.243 243.766L220.194 243.992C220.166 244.114 220.132 244.254 220.087 244.428L219.959 244.917L219.174 247.75C219.034 248.397 218.902 249.006 218.778 249.577L219.619 225.98C222.263 229.262 227.881 230.991 235.907 230.492L236.568 230.454C236.879 230.439 237.193 230.422 237.509 230.405L237.518 230.404L237.576 230.401L237.589 230.4C241.084 230.213 244.877 230.009 248.314 230.772C256.884 232.675 253.378 234.425 252.624 234.802L252.579 234.824L252.556 234.836L252.457 234.883C251.25 235.419 248.418 235.311 243.066 234.391L242.503 234.293ZM186.39 331.08L186.676 330.996C186.538 331.038 196.874 329.574 202.406 323.819C203.45 322.733 209.787 323.531 209.787 323.531L209.793 323.547C212.178 327.497 212.522 331.603 209.53 332.814C208.474 333.241 206.689 333.667 204.889 333.518L204.627 333.495L204.257 333.458C204.004 333.431 203.731 333.399 203.411 333.359L201.631 333.129C200.694 333.015 200.28 332.986 199.714 332.986C198.725 332.986 193.973 333.685 193.973 333.685C192.523 333.907 191.785 333.983 191.021 333.984C187.967 333.988 186.043 333.237 185.096 332.852L185.006 332.814C184.922 332.775 184.853 332.738 184.799 332.703L184.74 332.661L184.736 332.679C184.845 332.237 185.215 331.437 186.39 331.08ZM232.631 91.089C232.929 88.6699 233.028 86.4087 232.949 84.3066C229.327 85.7446 225.702 85.4806 222.621 83.6663C220.089 82.1757 217.81 79.8069 215.772 76.5723L215.697 76.4525L215.63 76.5828C213.983 79.7078 211.86 82.2036 209.26 84.0577L208.998 84.2409C205.735 86.4867 201.907 87.4891 197.551 87.251L197.569 87.3285C200.052 98.2613 208.685 115.106 215.351 115.509C217.901 115.664 221.601 111.545 225.032 107.081C228.736 102.26 231.95 96.5978 232.631 91.089ZM226.594 68.1528C229.856 71.2061 232.159 75.8708 232.796 82.1066C232.758 82.1187 232.72 82.1332 232.682 82.1502C229.48 83.5858 226.342 83.9538 223.682 82.3875C221.047 80.8362 218.653 77.6038 216.516 73.7152C216.097 72.9527 214.984 73.006 214.64 73.8049C214.572 73.9637 214.497 74.1425 214.415 74.3384C213.47 76.5973 211.572 81.1379 207.453 83.535C204.454 85.28 200.03 85.7218 197.845 85.9399L197.842 85.9402L197.839 85.9405C197.644 85.96 197.467 85.9777 197.311 85.9943C197.229 85.4856 197.168 84.98 197.125 84.4782C199.622 84.0261 204.868 82.2984 206.977 80.9736C209.653 79.293 210.472 77.5779 211.834 74.7265C212.083 74.2039 212.351 73.643 212.652 73.0373C212.912 72.5143 213.528 69.0291 212.068 71.6795C211.979 71.8405 211.885 72.0163 211.784 72.205L211.783 72.2061L211.783 72.2067L211.783 72.2072C210.263 75.0472 207.177 80.8166 197.065 83.4482C196.868 77.5932 199.235 72.3465 202.696 68.9536C205.928 65.7848 210.816 63.6896 214.531 63.3293C218.438 62.9502 223.162 64.9408 226.594 68.1528Z" fill="#00160A"/>
<path fill-rule="evenodd" clip-rule="evenodd" d="M120.799 250.792C120.173 244.123 117.069 237.522 112.151 232.989C108.57 229.689 103.437 226.925 98.648 229.288C91.28 233.686 89.3014 242.711 90.0444 250.792C90.9653 260.808 95.644 266.984 104.632 270.673C109.697 272.751 113.063 275.492 115.812 280.27C118.011 284.089 119.294 288.873 122.057 292.336C126.188 297.512 131.358 299.813 137.731 298.954C138.994 298.954 143.063 302.742 144.334 305.037C147.655 311.03 150.505 317.357 151.813 324.123C152.195 326.098 151.925 333.485 153.273 334.911C155.737 337.518 155.015 332.497 154.868 330.981C153.644 318.43 149.138 307.737 142.596 297.186C144.605 294.561 144.896 287.88 144.264 285.773C142.596 279.239 122.058 264.218 120.799 250.792Z" fill="white"/>
<path fill-rule="evenodd" clip-rule="evenodd" d="M97.8939 227.774L97.8574 227.794C91.013 231.879 88.5097 237.588 89.0012 250.84C89.5176 264.764 94.568 267.232 103.635 271.042L103.911 271.157C109.001 273.245 112.211 275.967 114.837 280.53L115.047 280.902C115.506 281.729 115.916 282.574 116.494 283.863L117.529 286.212C118.926 289.363 119.817 291.021 121.126 292.662C125.423 298.046 130.798 300.346 137.278 299.472L137.34 299.459L137.4 299.44C138.404 299.045 141.818 302.517 143.354 305.29C147.086 312.025 149.496 317.899 150.695 323.81L150.777 324.222C150.855 324.623 150.905 325.238 150.965 326.408L151.047 328.14C151.066 328.544 151.084 328.895 151.104 329.228L151.115 329.425C151.31 332.648 151.63 334.487 152.37 335.27C153.358 336.315 154.27 336.512 154.77 335.604C155.054 335.088 155.121 334.254 155.06 333.081L155.035 332.689C155.021 332.489 155.003 332.28 154.982 332.057L154.813 330.411C153.615 318.999 149.716 308.643 142.832 297.421L142.698 297.203L142.783 297.068C144.431 294.348 145.032 288.258 144.242 285.622C142.892 281.12 140.222 277.476 135.364 272.671L134.518 271.837C126.304 263.712 123.548 259.521 121.291 250.578L120.514 247.484L120.494 247.409C118.64 240.26 116.694 236.005 113.013 232.614C108.598 228.544 102.391 225.555 97.8939 227.774ZM112.305 233.383C115.681 236.494 118.068 240.425 119.821 246.972L120.198 248.421L120.722 250.523C121.291 256.16 123.048 262.8 133.784 272.581L134.355 273.144C139.273 277.971 141.929 281.546 143.241 285.923C143.987 288.411 143.304 294.718 141.658 296.868C141.526 297.04 141.514 297.276 141.629 297.461C148.629 308.752 152.573 319.1 153.772 330.512L153.92 331.934L153.961 332.365C153.979 332.571 153.994 332.764 154.005 332.951L154.016 333.135C154.067 334.111 154.01 334.817 153.854 335.1L153.847 335.119L153.865 335.124C153.727 335.094 153.471 334.912 153.13 334.552C152.657 334.051 152.35 332.35 152.173 329.588L152.136 328.967L152 326.176C151.944 325.118 151.894 324.524 151.815 324.088L151.803 324.024C150.61 317.85 148.136 311.763 144.269 304.783L144.184 304.632C142.376 301.455 138.863 297.898 137.1 298.438L137.089 298.442L137.138 298.436C131.032 299.26 126.016 297.114 121.943 292.01C120.669 290.413 119.796 288.764 118.363 285.512L117.624 283.831C116.844 282.075 116.362 281.085 115.743 280.009C113.048 275.327 109.73 272.469 104.595 270.309L104.308 270.189C95.4192 266.541 90.9373 260.48 90.0421 250.744L90.0166 250.454C89.2618 241.462 91.9605 233.708 98.1909 229.86L98.3745 229.748L98.3565 229.757C102.394 227.765 108.174 229.575 112.305 233.383Z" fill="#00160A"/>
<path fill-rule="evenodd" clip-rule="evenodd" d="M149.75 299.113C152.773 299.577 155.408 297.807 156.422 294.857C157.298 292.307 157.384 289.34 158.379 286.929C159.065 285.269 160.156 283.858 161.489 282.666C165.007 279.521 168.68 278.734 169.729 273.515C170.551 269.423 169.53 261.082 163.819 261.914C159.846 262.495 156.635 267.804 154.785 271.152C152.495 275.295 150.358 279.735 149.155 284.286C147.173 291.783 146.905 300.104 146.881 307.782C146.878 308.707 146.685 320.009 148.006 319.823C149.315 319.64 148.486 307.908 148.598 305.479" fill="white"/>
<path fill-rule="evenodd" clip-rule="evenodd" d="M106.737 236.402C105.73 236.918 105.927 238.579 107.132 241.544C108.338 244.514 110.118 246.75 111.935 247.767C113.795 248.807 115.493 248.379 115.962 246.554C116.386 244.908 113.49 240.789 110.415 238.066C108.814 236.649 107.565 235.977 106.737 236.402ZM109.722 238.849C112.19 241.833 115.231 245.721 114.95 246.816C114.674 247.887 113.766 248.116 112.446 247.377C110.854 246.487 108.938 243.958 107.815 241.194L107.649 240.778C106.622 238.798 106.625 237.011 107.214 236.81C107.774 236.618 108.988 237.962 109.722 238.849ZM158.527 268.867C158.116 267.744 159.35 266.363 161.626 265.367C164.069 264.298 165.658 264.221 165.651 265.552C165.645 266.451 164.433 267.706 162.583 268.836C160.708 269.981 158.957 270.043 158.527 268.867ZM164.59 265.622C164.548 265.616 164.496 265.613 164.432 265.613L164.364 265.615C164.295 265.619 164.212 265.616 164.111 265.613C163.485 265.596 162.195 265.559 159.784 266.755C159.268 267.011 158.937 268.374 158.986 268.508C159.104 268.83 160.645 269.317 162.038 268.466C162.619 268.112 163.128 267.486 163.543 266.977C163.717 266.763 163.875 266.569 164.014 266.425C164.327 266.101 164.517 265.821 164.581 265.651L164.59 265.622ZM160.645 275.785L160.393 276.194C159.288 277.997 158.619 279.275 158.351 280.082C157.992 281.16 158.376 281.923 159.375 281.596C160.285 281.299 162.039 279.824 164.221 277.672C165.986 275.93 166.869 273.283 166.192 272.015C165.272 270.292 163.125 271.799 160.645 275.785ZM165.27 271.985C165.688 272.767 164.959 275.476 163.487 276.928L162.993 277.41C162.61 277.78 162.199 278.196 161.791 278.608L161.791 278.609L161.791 278.609L161.791 278.609L161.79 278.609C160.538 279.877 159.318 281.111 159.025 280.896C158.684 280.645 159.795 278.292 161.011 276.337C162.183 274.453 163.719 272.713 164.496 272.168C165.001 271.813 165.183 271.821 165.27 271.985ZM150.741 291.908C150.444 293.879 150.71 295.35 151.705 295.554C152.728 295.764 153.815 294.401 155.027 291.621C156.184 288.968 155.881 286.454 154.368 286.073C152.806 285.68 151.388 287.856 150.772 291.707L150.741 291.908ZM154.112 287.086C154.788 287.256 155.139 289.029 154.264 291.305C153.577 293.093 151.705 297.338 151.21 294.014C151.134 293.509 151.134 292.848 151.252 292.063L151.315 291.668C151.854 288.501 153.421 286.912 154.112 287.086ZM96.5898 259.035C94.0299 256.243 92.5142 252.763 93.7738 251.241C95.2747 249.427 102.202 255.702 102.111 258.837C102.058 260.666 101.262 261.605 99.9431 261.365C98.9651 261.187 97.773 260.326 96.5898 259.035ZM94.5751 251.39L94.5389 251.438C93.8529 252.433 94.6545 255.947 96.8377 258.329C97.8799 259.465 99.4323 260.732 100.13 260.859C100.713 260.965 101.03 260.592 101.066 259.33C101.1 258.17 99.8091 255.744 97.9199 254.033C97.711 253.844 97.4614 253.589 97.1907 253.312L97.1905 253.312L97.1904 253.312L97.1903 253.312L97.1902 253.312C96.369 252.473 95.353 251.435 94.6872 251.427C94.5814 251.426 94.5586 251.415 94.5751 251.39ZM94.5751 251.39L94.5791 251.385C94.5776 251.387 94.5763 251.389 94.5751 251.39ZM124.829 289.516C125.413 292.054 126.566 293.706 128.127 294.612C129.186 295.226 130.169 295.406 131.296 295.406C133.712 295.406 134.834 294.329 134.413 292.58C134.097 291.269 132.884 289.639 131.267 288.219C129.655 286.802 127.926 285.842 126.669 285.763C124.952 285.656 124.26 287.043 124.829 289.516ZM126.604 286.807C127.576 286.867 129.123 287.727 130.577 289.004C132.047 290.295 133.142 291.766 133.397 292.825C133.64 293.839 133.097 294.883 131.296 294.883C130.337 294.883 129.52 294.733 128.652 294.23C127.35 293.475 125.846 291.547 125.325 289.282C124.891 287.398 125.736 286.753 126.604 286.807ZM129.191 278.781C127.028 276.983 125.993 275.094 126.616 274.054C127.325 272.87 129.185 273.64 131.068 275.709C132.246 277.003 133.896 279.243 134.383 280.349C134.581 280.8 134.648 281.136 134.497 281.443C134.267 281.906 133.81 281.919 133.276 281.7C132.595 281.421 131.442 280.62 129.738 279.231L129.191 278.781ZM128.121 274.677C127.891 274.582 127.709 274.548 127.59 274.562C127.535 274.568 127.521 274.577 127.512 274.591C127.499 274.613 127.475 274.642 127.446 274.678C127.3 274.858 127.018 275.203 127.263 275.649C127.647 276.35 128.873 277.679 129.859 278.499C131.177 279.594 132.558 280.362 133.38 280.82L133.38 280.82L133.38 280.82L133.381 280.821C133.534 280.906 133.668 280.98 133.778 281.044L133.848 281.083L133.771 280.937C133.202 279.9 131.388 277.64 130.411 276.542L130.295 276.413C129.474 275.511 128.717 274.923 128.121 274.677ZM106.232 264.646C105.608 265.686 106.644 267.575 108.807 269.373L109.354 269.823C111.058 271.212 112.211 272.013 112.892 272.292C113.426 272.511 113.883 272.498 114.113 272.035C114.264 271.728 114.197 271.392 113.999 270.941C113.512 269.835 111.862 267.595 110.684 266.301C108.801 264.232 106.941 263.462 106.232 264.646ZM107.206 265.154C107.325 265.14 107.507 265.174 107.737 265.269C108.333 265.515 109.09 266.103 109.911 267.005L110.027 267.134C111.004 268.232 112.296 270.492 112.864 271.529L112.941 271.675L112.871 271.636C112.17 271.23 111.039 270.391 109.475 269.091C108.489 268.271 107.263 266.942 106.879 266.241C106.634 265.795 106.916 265.45 107.062 265.27C107.091 265.234 107.115 265.205 107.128 265.183C107.137 265.169 107.151 265.16 107.206 265.154ZM119.261 266.237C117.097 264.439 116.062 262.55 116.685 261.51C117.395 260.326 119.254 261.096 121.137 263.165C122.315 264.459 123.965 266.699 124.452 267.805C124.65 268.256 124.718 268.592 124.566 268.899C124.337 269.362 123.88 269.375 123.346 269.156C122.664 268.877 121.511 268.076 119.807 266.687L119.261 266.237ZM118.19 262.133C117.961 262.038 117.779 262.004 117.66 262.018C117.604 262.025 117.59 262.033 117.582 262.047C117.579 262.052 117.576 262.056 117.574 262.061C117.484 262.209 117.219 262.648 117.503 263.165C117.887 263.867 119.011 265.642 119.406 265.955C120.579 266.884 122.051 267.604 123.026 268.082C123.376 268.253 123.662 268.393 123.847 268.5L123.917 268.539L123.84 268.393C123.272 267.356 121.457 265.096 120.48 263.998L120.364 263.869C119.543 262.967 118.786 262.379 118.19 262.133Z" fill="#FFB61D"/>
<path fill-rule="evenodd" clip-rule="evenodd" d="M163.743 261.397C166.629 260.977 169.18 262.645 170.24 265.696C171.073 268.093 170.714 271.264 170.241 273.618C169.634 276.637 168.371 278.25 165.587 280.248L163.915 281.422C163.337 281.834 162.863 282.192 162.41 282.565C162.213 282.727 162.022 282.89 161.837 283.056C160.491 284.259 159.487 285.616 158.862 287.129L158.777 287.341C158.446 288.189 158.236 289.03 157.934 290.599L157.675 291.972C157.412 293.337 157.214 294.159 156.916 295.027C155.772 298.354 153.357 300.116 150.193 299.63C149.907 299.586 148.97 299.657 151.07 299.231C153.171 298.806 154.937 297.567 155.927 294.687C156.206 293.876 156.395 293.089 156.65 291.766L156.91 290.386C157.25 288.626 157.48 287.736 157.896 286.73C158.584 285.064 159.682 283.58 161.14 282.276C161.336 282.101 161.538 281.929 161.745 281.758C162.16 281.416 162.589 281.089 163.089 280.728L163.598 280.367C164.019 280.071 164.662 279.623 164.792 279.532L165.153 279.272C167.615 277.477 169.206 276.065 169.739 273.412C170.176 271.235 169.5 268.254 168.73 266.04C167.818 263.416 166.211 261.571 163.894 261.908C160.483 262.407 152.014 274.804 149.672 282.394C147.746 288.639 147.257 298.226 147.384 306.834L147.405 308.06L147.402 309.751C147.403 311.122 147.417 312.266 147.453 313.457L147.462 313.756C147.52 315.479 147.619 316.894 147.768 317.912C147.817 318.247 147.871 318.535 147.929 318.768L147.958 318.883L147.974 318.812C148.039 318.498 148.092 318.088 148.132 317.589L148.145 317.419L148.169 317.059C148.233 315.946 148.246 314.522 148.218 312.743L148.194 311.5C148.184 311.043 148.171 310.552 148.155 309.981L148.068 306.697C148.058 306.187 148.059 305.919 148.067 305.67L148.106 304.718C148.134 303.946 148.151 303.143 148.171 301.867L148.201 300.018C148.28 295.792 148.434 293.687 148.938 291.099C149.014 290.709 149.097 290.324 149.187 289.943C150.506 284.39 153.345 280.392 156.091 275.494C156.916 274.023 161.245 271.77 161.285 272.056C161.324 272.342 157.578 274.033 156.441 275.924C154.022 279.947 151.494 284.756 150.204 290.185C150.117 290.551 150.037 290.922 149.964 291.299L149.868 291.808C149.455 294.104 149.318 296.16 149.246 300.048L149.192 303.287C149.178 303.946 149.162 304.47 149.141 305.004L149.109 305.78C149.103 306.067 149.106 306.419 149.124 307.176L149.235 311.278C149.244 311.68 149.252 312.053 149.259 312.425L149.276 313.624C149.325 318.274 149.108 320.196 148.078 320.341C147.272 320.454 146.969 319.669 146.734 318.063C146.587 317.061 146.488 315.718 146.428 314.098L146.418 313.791C146.374 312.478 146.358 311.249 146.357 309.755L146.358 307.795C146.137 298.85 147.161 288.681 149.196 282.086C151.649 274.134 159.786 261.975 163.743 261.397Z" fill="#00160A"/>
<ellipse cx="147.915" cy="325.099" rx="20.384" ry="15.1573" fill="white"/>
<ellipse cx="139.816" cy="325.099" rx="12.2852" ry="15.1573" fill="#E7EAEE"/>
<path fill-rule="evenodd" clip-rule="evenodd" d="M168.298 309.288H127.53C127.169 309.288 126.877 309.58 126.877 309.941C126.877 321.107 127.931 328.059 130.731 332.886C133.888 338.328 139.327 340.909 147.914 340.909C156.502 340.909 161.941 338.328 165.098 332.886C167.898 328.059 168.952 321.107 168.952 309.941C168.952 309.58 168.659 309.288 168.298 309.288ZM129.23 310.595H167.121L167.12 310.745C167.071 321.224 167.076 327.772 164.49 332.23C161.59 337.231 156.069 340.125 147.914 340.125C139.76 340.125 134.762 336.708 131.861 331.708L131.763 331.537C129.282 327.143 129.307 321.265 129.233 311.157L129.23 310.595Z" fill="#00160A"/>
</svg>
